<svg width="24" height="24" viewBox="0 0 24 24" fill="none" xmlns="http://www.w3.org/2000/svg">
<path d="M20.2068 10.5423L20.2081 10.5436C20.301 10.6359 20.3747 10.7456 20.4248 10.8666C20.4749 10.9876 20.5005 11.1173 20.5 11.2482V11.25V20.25C20.5 20.3163 20.4737 20.3799 20.4268 20.4268C20.3799 20.4737 20.3163 20.5 20.25 20.5H3.75001C3.6837 20.5 3.62012 20.4737 3.57323 20.4268C3.52635 20.3799 3.50001 20.3163 3.50001 20.25L3.50001 11.25L3.50001 11.2482C3.49954 11.1173 3.52511 10.9876 3.57522 10.8666C3.62534 10.7456 3.699 10.6359 3.79193 10.5436L3.79325 10.5423L11.2931 3.04242C11.4807 2.85502 11.7349 2.74976 12 2.74976C12.2651 2.74976 12.5193 2.85498 12.7068 3.0423C12.7068 3.04234 12.7068 3.04238 12.7069 3.04242L20.2068 10.5423ZM21 20.25V11.25L13.0603 2.68875C12.779 2.40766 12.3977 2.24976 12 2.24976C11.6024 2.24976 11.221 2.40766 10.9397 2.68875L3.4397 10.1887C3.29973 10.3277 3.18878 10.493 3.1133 10.6752C3.03782 10.8574 2.99931 11.0528 3.00001 11.25V20.25C3.00001 20.4489 3.07903 20.6397 3.21968 20.7803C3.36033 20.921 3.5511 21 3.75001 21H20.25C20.4489 21 20.6397 20.921 20.7803 20.7803C20.921 20.6397 21 20.4489 21 20.25ZM19.5 20H20V19.5V11.25V11.0429L19.8536 10.8964L12.3536 3.39644L12 3.04289L11.6465 3.39644L4.14646 10.8964L4.00001 11.0429V11.25V19.5V20H4.50001H19.5Z" stroke="#00AAD2"/>
</svg>
