<svg width="30" height="30" viewBox="0 0 30 30" fill="none" xmlns="http://www.w3.org/2000/svg">
<g id="fluent:bed-16-regular">
<path id="Vector" d="M5.625 8.4375C5.625 7.1943 6.11886 6.00201 6.99794 5.12294C7.87701 4.24386 9.0693 3.75 10.3125 3.75H19.6875C20.9307 3.75 22.123 4.24386 23.0021 5.12294C23.8811 6.00201 24.375 7.1943 24.375 8.4375V11.3438C25.4338 11.5599 26.3854 12.1352 27.0687 12.9723C27.7521 13.8094 28.1252 14.8569 28.125 15.9375V25.3125C28.125 25.5611 28.0262 25.7996 27.8504 25.9754C27.6746 26.1512 27.4361 26.25 27.1875 26.25C26.9389 26.25 26.7004 26.1512 26.5246 25.9754C26.3488 25.7996 26.25 25.5611 26.25 25.3125V20.625H3.75V25.3125C3.75 25.5611 3.65123 25.7996 3.47541 25.9754C3.2996 26.1512 3.06114 26.25 2.8125 26.25C2.56386 26.25 2.3254 26.1512 2.14959 25.9754C1.97377 25.7996 1.875 25.5611 1.875 25.3125V15.9375C1.87478 14.8569 2.24792 13.8094 2.93128 12.9723C3.61463 12.1352 4.56622 11.5599 5.625 11.3438V8.4375ZM3.75 18.75H26.25V15.9375C26.25 15.1916 25.9537 14.4762 25.4262 13.9488C24.8988 13.4213 24.1834 13.125 23.4375 13.125H6.5625C5.81658 13.125 5.10121 13.4213 4.57376 13.9488C4.04632 14.4762 3.75 15.1916 3.75 15.9375V18.75ZM22.5 8.4375C22.5 7.69158 22.2037 6.97621 21.6762 6.44876C21.1488 5.92132 20.4334 5.625 19.6875 5.625H10.3125C9.56658 5.625 8.85121 5.92132 8.32376 6.44876C7.79632 6.97621 7.5 7.69158 7.5 8.4375V11.25H9.375V10.3125C9.375 10.0639 9.47377 9.8254 9.64959 9.64959C9.8254 9.47377 10.0639 9.375 10.3125 9.375H13.125C13.3736 9.375 13.6121 9.47377 13.7879 9.64959C13.9637 9.8254 14.0625 10.0639 14.0625 10.3125V11.25H15.9375V10.3125C15.9375 10.0639 16.0363 9.8254 16.2121 9.64959C16.3879 9.47377 16.6264 9.375 16.875 9.375H19.6875C19.9361 9.375 20.1746 9.47377 20.3504 9.64959C20.5262 9.8254 20.625 10.0639 20.625 10.3125V11.25H22.5V8.4375Z" fill="#21CCF4"/>
</g>
</svg>
