<svg width="25" height="24" viewBox="0 0 25 24" fill="none" xmlns="http://www.w3.org/2000/svg">
<g id="MagnifyingGlass">
<path id="Vector" d="M22.2806 20.4693L17.5866 15.7762C18.9471 14.1428 19.6255 12.0478 19.4807 9.92691C19.3359 7.80604 18.379 5.82265 16.8091 4.38932C15.2392 2.95599 13.1772 2.18308 11.0519 2.23138C8.92666 2.27968 6.90184 3.14547 5.39867 4.64864C3.8955 6.15181 3.02971 8.17663 2.98141 10.3019C2.93311 12.4271 3.70602 14.4892 5.13935 16.0591C6.57268 17.629 8.55607 18.5859 10.6769 18.7307C12.7978 18.8755 14.8929 18.1971 16.5263 16.8365L21.2194 21.5306C21.2891 21.6003 21.3718 21.6556 21.4628 21.6933C21.5539 21.731 21.6515 21.7504 21.75 21.7504C21.8485 21.7504 21.9461 21.731 22.0372 21.6933C22.1282 21.6556 22.2109 21.6003 22.2806 21.5306C22.3503 21.4609 22.4056 21.3782 22.4433 21.2871C22.481 21.1961 22.5004 21.0985 22.5004 21C22.5004 20.9014 22.481 20.8038 22.4433 20.7128C22.4056 20.6218 22.3503 20.539 22.2806 20.4693ZM4.5 10.5C4.5 9.16495 4.89588 7.8599 5.63758 6.74987C6.37928 5.63984 7.43349 4.77467 8.66689 4.26378C9.90029 3.75289 11.2575 3.61922 12.5669 3.87967C13.8762 4.14012 15.079 4.78299 16.023 5.727C16.967 6.671 17.6099 7.87374 17.8703 9.18311C18.1308 10.4925 17.9971 11.8497 17.4862 13.0831C16.9753 14.3165 16.1101 15.3707 15.0001 16.1124C13.8901 16.8541 12.585 17.25 11.25 17.25C9.4604 17.248 7.74466 16.5362 6.47922 15.2708C5.21378 14.0053 4.50199 12.2896 4.5 10.5Z" fill="black" fill-opacity="0.25"/>
</g>
</svg>
