<svg width="32" height="32" viewBox="0 0 32 32" fill="none" xmlns="http://www.w3.org/2000/svg">
<rect width="32" height="32" fill="#333333"/>
<g id="&#235;&#148;&#148;&#236;&#158;&#144;&#236;&#157;&#184;">
<path d="M-102 -3179C-102 -3180.1 -101.105 -3181 -100 -3181H2369C2370.1 -3181 2371 -3180.1 2371 -3179V2457C2371 2458.1 2370.1 2459 2369 2459H-100C-101.105 2459 -102 2458.1 -102 2457V-3179Z" fill="#444444"/>
<path d="M-100 -3180H2369V-3182H-100V-3180ZM2370 -3179V2457H2372V-3179H2370ZM2369 2458H-100V2460H2369V2458ZM-101 2457V-3179H-103V2457H-101ZM-100 2458C-100.552 2458 -101 2457.55 -101 2457H-103C-103 2458.66 -101.657 2460 -100 2460V2458ZM2370 2457C2370 2457.55 2369.55 2458 2369 2458V2460C2370.66 2460 2372 2458.66 2372 2457H2370ZM2369 -3180C2369.55 -3180 2370 -3179.55 2370 -3179H2372C2372 -3180.66 2370.66 -3182 2369 -3182V-3180ZM-100 -3182C-101.657 -3182 -103 -3180.66 -103 -3179H-101C-101 -3179.55 -100.552 -3180 -100 -3180V-3182Z" fill="white" fill-opacity="0.1"/>
<g id="2 &#237;&#129;&#144;&#235;&#160;&#136;&#236;&#157;&#180;&#236;&#133;&#152; &#237;&#153;&#136; curation" clip-path="url(#clip0_0_1)">
<rect width="360" height="1858" transform="translate(-22 -601)" fill="white"/>
<g id="Frame 1261155281">
<g id="Frame 1261155279">
<g id="Frame 1261155336">
<rect x="-12" y="-12" width="55" height="55" rx="11" fill="#21CCF4" fill-opacity="0.1"/>
<g id="SquaresFour">
<path id="Vector" d="M13 5H7C6.46957 5 5.96086 5.21071 5.58579 5.58579C5.21071 5.96086 5 6.46957 5 7V13C5 13.5304 5.21071 14.0391 5.58579 14.4142C5.96086 14.7893 6.46957 15 7 15H13C13.5304 15 14.0391 14.7893 14.4142 14.4142C14.7893 14.0391 15 13.5304 15 13V7C15 6.46957 14.7893 5.96086 14.4142 5.58579C14.0391 5.21071 13.5304 5 13 5ZM13 13H7V7H13V13ZM25 5H19C18.4696 5 17.9609 5.21071 17.5858 5.58579C17.2107 5.96086 17 6.46957 17 7V13C17 13.5304 17.2107 14.0391 17.5858 14.4142C17.9609 14.7893 18.4696 15 19 15H25C25.5304 15 26.0391 14.7893 26.4142 14.4142C26.7893 14.0391 27 13.5304 27 13V7C27 6.46957 26.7893 5.96086 26.4142 5.58579C26.0391 5.21071 25.5304 5 25 5ZM25 13H19V7H25V13ZM13 17H7C6.46957 17 5.96086 17.2107 5.58579 17.5858C5.21071 17.9609 5 18.4696 5 19V25C5 25.5304 5.21071 26.0391 5.58579 26.4142C5.96086 26.7893 6.46957 27 7 27H13C13.5304 27 14.0391 26.7893 14.4142 26.4142C14.7893 26.0391 15 25.5304 15 25V19C15 18.4696 14.7893 17.9609 14.4142 17.5858C14.0391 17.2107 13.5304 17 13 17ZM13 25H7V19H13V25ZM25 17H19C18.4696 17 17.9609 17.2107 17.5858 17.5858C17.2107 17.9609 17 18.4696 17 19V25C17 25.5304 17.2107 26.0391 17.5858 26.4142C17.9609 26.7893 18.4696 27 19 27H25C25.5304 27 26.0391 26.7893 26.4142 26.4142C26.7893 26.0391 27 25.5304 27 25V19C27 18.4696 26.7893 17.9609 26.4142 17.5858C26.0391 17.2107 25.5304 17 25 17ZM25 25H19V19H25V25Z" fill="#21CCF4"/>
</g>
</g>
</g>
</g>
</g>
</g>
<defs>
<clipPath id="clip0_0_1">
<rect width="360" height="1858" fill="white" transform="translate(-22 -601)"/>
</clipPath>
</defs>
</svg>
