<svg width="24" height="24" viewBox="0 0 24 24" fill="none" xmlns="http://www.w3.org/2000/svg">
<path d="M19.6588 5.10664L19.659 5.10652C19.7765 5.04775 19.9044 5.01268 20.0354 5.00333C20.1664 4.99398 20.2979 5.01052 20.4225 5.05202C20.5471 5.09352 20.6624 5.15915 20.7616 5.24518C20.8608 5.33117 20.9421 5.43585 21.0008 5.55324C21.0009 5.55329 21.0009 5.55335 21.0009 5.5534L23.3933 10.3401C23.5114 10.5765 23.5307 10.8509 23.4466 11.1032C23.3628 11.3547 23.1827 11.5626 22.9457 11.6812C22.9457 11.6813 22.9456 11.6813 22.9455 11.6813L20.4689 12.9197L20.3963 12.956L20.3389 13.0134L15.1763 18.1769C15.1763 18.1769 15.1763 18.1769 15.1762 18.1769C15.1457 18.2074 15.1078 18.2295 15.0662 18.241C15.0245 18.2525 14.9807 18.253 14.9388 18.2425L14.9384 18.2424L8.93889 16.7426C8.90819 16.7349 8.87918 16.7215 8.85335 16.7032C8.85321 16.7031 8.85308 16.703 8.85294 16.7029L3.65149 12.9881L3.61964 12.9654L3.58464 12.9479L1.05339 11.6813L1.05334 11.6813C0.935883 11.6225 0.831149 11.5412 0.745122 11.442C0.659095 11.3427 0.593458 11.2275 0.551961 11.1029C0.510464 10.9783 0.493919 10.8467 0.503271 10.7157C0.512623 10.5847 0.547689 10.4569 0.606467 10.3394L0.606565 10.3392L2.999 5.5534C2.99902 5.55336 2.99904 5.55332 2.99907 5.55328C3.05782 5.43587 3.13912 5.33118 3.23832 5.24518C3.33756 5.15915 3.45277 5.09352 3.57738 5.05202C3.70199 5.01052 3.83355 4.99398 3.96455 5.00333C4.09555 5.01268 4.22343 5.04775 4.34088 5.10652L4.34111 5.10664L6.67267 6.27195L6.84156 6.35636L7.02409 6.30808L11.9337 5.00921C11.9339 5.00915 11.9342 5.00909 11.9344 5.00902C11.9774 4.99797 12.0225 4.99797 12.0655 5.00902C12.0657 5.00909 12.066 5.00915 12.0662 5.00921L16.9758 6.30808L17.1584 6.35636L17.3272 6.27195L19.6588 5.10664ZM18.3821 13.6353L18.7321 13.9156L19.0487 13.5981L19.6909 12.954L19.945 12.6992L19.784 12.3773L17.2331 7.27638L17.0949 7.00002H16.7859H13.8037H13.6009L13.4553 7.14136L9.40159 11.0789L8.94627 11.5211L9.48286 11.8602C10.155 12.2849 11.0227 12.5611 11.966 12.4885C12.9174 12.4152 13.9099 11.9898 14.8223 11.0707L14.8224 11.0706C14.8659 11.0268 14.924 11.0006 14.9856 10.9971C15.0472 10.9936 15.108 11.013 15.1561 11.0515C15.1561 11.0515 15.1562 11.0515 15.1562 11.0515L18.3821 13.6353ZM4.11674 5.55267L3.66966 5.32946L3.44618 5.77641L1.05275 10.5633L0.829095 11.0106L1.27644 11.2341L3.19175 12.1913L3.63861 12.4147L3.86233 11.968L6.25952 7.18206L6.48373 6.73443L6.0358 6.5108L4.11674 5.55267ZM14.6472 17.6535L14.9218 17.7222L15.122 17.522L17.9785 14.6654L18.3727 14.2712L17.9381 13.9221L15.3459 11.8399L15.0297 11.5859L14.716 11.8428C13.0382 13.2167 10.9479 13.3827 9.21657 12.2771L9.21601 12.2767C9.08972 12.1963 8.98309 12.0885 8.90401 11.9614C8.82492 11.8343 8.77539 11.691 8.75907 11.5422C8.74276 11.3933 8.76007 11.2427 8.80973 11.1015C8.85939 10.9602 8.94014 10.8319 9.04601 10.7261L9.0564 10.7157L9.06143 10.71L13.267 6.62786L13.9017 6.01171L13.0465 5.78568L12.1277 5.54286L11.9998 5.50906L11.8719 5.54295L7.20502 6.77951L6.98682 6.83732L6.88587 7.03922L4.26087 12.2892L4.06979 12.6714L4.41748 12.9197L9.02998 16.2141L9.10725 16.2693L9.19938 16.2923L14.6472 17.6535ZM20.1338 11.9669L20.3571 12.4133L20.8039 12.1907L22.723 11.2344L23.1711 11.0111L22.9472 10.5633L20.5537 5.77641L20.3299 5.32867L19.8824 5.55307L17.9643 6.51494L17.5177 6.73888L17.7413 7.18564L20.1338 11.9669ZM11.8448 20.1215C11.8713 20.1656 11.8834 20.2166 11.8799 20.2673L11.8693 20.3097C11.8558 20.3637 11.8246 20.4117 11.7807 20.446C11.737 20.4802 11.6833 20.4988 11.6279 20.4991C11.607 20.499 11.5862 20.4964 11.566 20.4914C11.5658 20.4914 11.5657 20.4914 11.5656 20.4913L7.65969 19.5146L7.65817 19.5143C7.62856 19.507 7.60062 19.4941 7.57585 19.4763L7.57494 19.4756L5.11634 17.7196C5.06933 17.6801 5.03843 17.6246 5.02971 17.5636C5.02059 17.4999 5.0364 17.4351 5.07386 17.3828C5.11131 17.3304 5.16752 17.2945 5.23077 17.2826C5.29138 17.2711 5.35398 17.2825 5.40659 17.3143L7.74929 18.9881L7.82666 19.0434L7.91892 19.0664L11.6911 20.0076C11.6912 20.0076 11.6912 20.0076 11.6913 20.0076C11.7555 20.0237 11.8107 20.0647 11.8448 20.1215Z" fill="black" fill-opacity="0.25" stroke="#00AAD2"/>
</svg>
