<svg width="148" height="42" viewBox="0 0 148 42" fill="none" xmlns="http://www.w3.org/2000/svg">
<rect width="148" height="42" rx="15" fill="white"/>
<path d="M17.1709 8.37695V10.167H20.0146V8.37695H21.208V9.48145H23.6963V7.7041H24.9023V14.4707H23.6963V12.7822H21.208V13.8613H15.9648V8.37695H17.1709ZM17.1709 12.8838H20.0146V11.1191H17.1709V12.8838ZM17.1963 16.0068V15.042H24.9023V19.0791H23.6963V16.0068H17.1963ZM21.208 11.8047H23.6963V10.459H21.208V11.8047ZM30.4537 11.0557C30.4474 12.96 31.6979 14.9277 33.4498 15.6768L32.7897 16.6162C31.4503 16.0259 30.3839 14.769 29.8571 13.252C29.3302 14.877 28.2638 16.2607 26.9371 16.9082L26.2389 15.9561C27.9528 15.1499 29.2223 13.0171 29.235 11.0557V9.84961H26.6325V8.84668H33.0436V9.84961H30.4537V11.0557ZM34.4782 19.0791V7.7041H35.6842V19.0791H34.4782ZM39.1536 17.124L38.138 20.6279H37.0589L37.7317 17.124H39.1536ZM51.691 7.7041V12.1094H53.5191V13.125H51.691V19.0791H50.4849V7.7041H51.691ZM43.2613 16.375V8.65625H44.4546V11.5762H47.4634V8.65625H48.6568V16.375H43.2613ZM44.4546 15.3848H47.4634V12.5283H44.4546V15.3848ZM62.6125 7.7041V10.5098H64.2629V11.5254H62.6125V14.3818H61.4064V7.7041H62.6125ZM54.1828 13.5947V8.50391H59.2609V9.48145H55.3762V12.6172C57.5915 12.6045 58.8356 12.5474 60.2639 12.249L60.4035 13.2139C58.8674 13.5376 57.5217 13.5947 55.0842 13.5947H54.1828ZM55.0969 15.9561V14.9912H62.6125V19.0918H61.4064V15.9561H55.0969ZM74.3465 7.7041V19.0791H73.1912V13.2393H71.8329V18.5205H70.6903V7.91992H71.8329V12.2236H73.1912V7.7041H74.3465ZM64.368 15.8672C66.0311 14.9341 66.8055 12.9727 66.8055 10.7129V9.97656H64.6727V8.99902H69.9539V9.97656H67.9735V10.7129C67.9735 12.7568 68.7415 14.6104 70.3983 15.4609L69.6873 16.3877C68.5702 15.7783 67.8211 14.7183 67.4149 13.4106C67.0277 14.9023 66.2787 16.0957 65.117 16.7812L64.368 15.8672ZM78.7807 8.42773C80.5327 8.42773 81.834 9.53223 81.8403 11.1318C81.834 12.541 80.8247 13.563 79.3901 13.7915V15.5942C80.3994 15.5435 81.4087 15.4673 82.3481 15.3467L82.437 16.248C80.0312 16.667 77.3843 16.686 75.4165 16.667L75.2261 15.6768C76.1084 15.6704 77.124 15.6641 78.1841 15.6387V13.7915C76.7178 13.5757 75.7148 12.5474 75.7212 11.1318C75.7148 9.53223 76.9971 8.42773 78.7807 8.42773ZM76.8891 11.1318C76.8828 12.1411 77.6889 12.814 78.7807 12.8076C79.8598 12.814 80.6533 12.1411 80.6596 11.1318C80.6533 10.1162 79.8598 9.45605 78.7807 9.44336C77.6889 9.45605 76.8828 10.1162 76.8891 11.1318ZM83.0337 19.0791V7.7041H84.2397V12.3252H85.9917V13.3408H84.2397V19.0791H83.0337ZM97.9324 7.7041V10.2686H99.5828V11.2461H97.9324V13.7471H96.7263V7.7041H97.9324ZM89.0076 12.9854C91.8704 12.4077 93.3621 11.0684 93.5271 9.45605H89.5154V8.49121H94.8601C94.8601 11.3921 92.8987 13.2393 89.5154 13.9629L89.0076 12.9854ZM90.6326 18.9395V14.2295H97.9832V15.1436H91.8386V16.1211H97.8562V16.9971H91.8386V18.0254H98.2371V18.9395H90.6326ZM110.212 13.6455V14.6104H99.8402V13.6455H110.212ZM100.957 10.3574C100.951 8.9292 102.544 8.07861 105.02 8.08496C107.483 8.07861 109.076 8.9292 109.082 10.3574C109.076 11.792 107.483 12.6616 105.02 12.668C102.544 12.6616 100.951 11.792 100.957 10.3574ZM101.148 18.8379V15.5371H102.367V17.8604H109.044V18.8379H101.148ZM102.202 10.3574C102.195 11.2017 103.274 11.6777 105.02 11.6777C106.759 11.6777 107.845 11.2017 107.838 10.3574C107.845 9.54492 106.759 9.0498 105.02 9.0498C103.274 9.0498 102.195 9.54492 102.202 10.3574ZM19.3799 27.0557C19.3735 28.8521 20.5605 30.8579 22.2871 31.6768L21.6016 32.6162C20.3257 32.0068 19.3101 30.7246 18.7959 29.2393C18.2754 30.8579 17.209 32.2607 15.9141 32.9082L15.2031 31.9561C16.9297 31.1245 18.1802 28.979 18.1865 27.0557V25.8496H15.6221V24.8467H21.8555V25.8496H19.3799V27.0557ZM23.0742 35.0791V23.7041H24.2803V28.2109H26.1084V29.2266H24.2803V35.0791H23.0742ZM36.0905 23.7041V35.0791H34.9352V29.2393H33.5768V34.5205H32.4342V23.9199H33.5768V28.2236H34.9352V23.7041H36.0905ZM26.112 31.8672C27.775 30.9341 28.5495 28.9727 28.5495 26.7129V25.9766H26.4166V24.999H31.6979V25.9766H29.7174V26.7129C29.7174 28.7568 30.4855 30.6104 32.1422 31.4609L31.4313 32.3877C30.3141 31.7783 29.5651 30.7183 29.1588 29.4106C28.7716 30.9023 28.0226 32.0957 26.861 32.7812L26.112 31.8672ZM47.5071 28.9219V29.8486H37.097V28.9219H47.5071ZM38.3284 31.5117V30.6484H46.2249V33.1494H39.5471V34.0889H46.5804V34.9395H38.3411V32.3496H45.0315V31.5117H38.3284ZM38.4046 24.8467V23.9961H46.1995V26.459H39.6233V27.3223H46.3899V28.1729H38.43V25.6592H44.9934V24.8467H38.4046ZM60.2222 23.7168V32.1211H59.0162V29.1631H56.5279V30.2295H51.2847V24.4658H52.4908V26.3955H55.3345V24.4658H56.5279V25.7354H59.0162V23.7168H60.2222ZM52.4908 29.252H55.3345V27.3223H52.4908V29.252ZM52.7955 34.8379V31.2959H54.0142V33.8604H60.4761V34.8379H52.7955ZM56.5279 28.1855H59.0162V26.7256H56.5279V28.1855ZM71.0676 23.7168V30.4453H69.8615V29.0615H66.9924V28.0713H69.8615V26.6875H67.113C66.3767 28.5156 64.6691 29.8042 62.2062 30.5088L61.7238 29.5693C64.4152 28.8013 65.9895 27.354 66.2053 25.5195H62.3078V24.5293H67.5129C67.5129 24.9482 67.4685 25.3545 67.3923 25.7354H69.8615V23.7168H71.0676ZM63.4885 32.7939C63.4885 31.4165 64.9865 30.5786 67.3225 30.5723C69.6267 30.5786 71.1374 31.4165 71.1437 32.7939C71.1374 34.1777 69.6267 35.0283 67.3225 35.0283C64.9865 35.0283 63.4885 34.1777 63.4885 32.7939ZM64.6818 32.7939C64.6818 33.5938 65.6975 34.0571 67.3225 34.0635C68.9157 34.0571 69.9313 33.5938 69.9377 32.7939C69.9313 31.9814 68.9157 31.5181 67.3225 31.5244C65.6975 31.5181 64.6818 31.9814 64.6818 32.7939ZM81.367 23.666V26.332H83.0301V27.3223H81.367V29.9248H80.161V23.666H81.367ZM72.4422 25.6211V24.6689H75.2352V23.6025H76.4412V24.6689H79.2215V25.6211H72.4422ZM73.0643 27.9189C73.0579 26.77 74.1624 26.0527 75.8319 26.0527C77.5013 26.0527 78.5868 26.77 78.5868 27.9189C78.5868 29.0742 77.5013 29.7788 75.8319 29.7725C74.1624 29.7788 73.0579 29.0742 73.0643 27.9189ZM74.0164 31.3594V30.458H81.367V33.0986H75.2225V34.0508H81.7606V34.9648H74.0418V32.248H80.1737V31.3594H74.0164ZM74.2323 27.9189C74.2196 28.5347 74.848 28.8965 75.8319 28.8965C76.8094 28.8965 77.4442 28.5347 77.4569 27.9189C77.4442 27.3032 76.8094 26.9224 75.8319 26.916C74.848 26.9224 74.2196 27.3032 74.2323 27.9189ZM91.8859 24.707C91.8795 26.2178 93.7267 27.6333 95.9611 27.9316L95.4913 28.9219C93.6315 28.6235 92.0001 27.6587 91.2574 26.3193C90.5148 27.6587 88.8834 28.6235 87.0362 28.9219L86.5538 27.9316C88.7819 27.6333 90.6227 26.2368 90.629 24.707V24.085H91.8859V24.707ZM86.0587 31.0293V30.0391H96.4308V31.0293H91.8097V35.0791H90.629V31.0293H86.0587ZM103.636 31.2197C103.636 32.1973 104.119 33.2319 105.153 33.8477C106.194 33.1812 106.708 32.0957 106.708 31.2197V30.6738H107.889V31.2197C107.883 32.4004 108.663 33.543 110.149 34.0254L109.552 34.9141C108.429 34.5269 107.661 33.7651 107.267 32.8384C106.905 33.7524 106.226 34.584 105.185 35.0156C104.093 34.603 103.401 33.7969 103.052 32.8701C102.64 33.7651 101.891 34.5205 100.818 34.9141L100.208 34.0254C101.668 33.5049 102.462 32.3179 102.468 31.2197V30.6738H103.636V31.2197ZM99.9164 27.0303C99.9228 25.437 101.205 24.3452 102.951 24.3389C104.69 24.3452 105.972 25.437 105.972 27.0303C105.972 28.6045 104.69 29.6963 102.951 29.6963C101.205 29.6963 99.9228 28.6045 99.9164 27.0303ZM101.097 27.0303C101.091 28.0205 101.871 28.6934 102.951 28.6934C104.017 28.6934 104.791 28.0205 104.791 27.0303C104.791 26.0337 104.017 25.3608 102.951 25.3672C101.871 25.3608 101.091 26.0337 101.097 27.0303ZM107.914 30.1914V23.7168H109.121V30.1914H107.914ZM113.618 24.5547C115.167 24.561 116.291 25.8687 116.475 27.9697H118.823V23.7041H120.017V35.1045H118.823V28.9473H116.487C116.354 31.1689 115.205 32.5464 113.618 32.54C111.923 32.5464 110.724 30.9976 110.736 28.541C110.724 26.1099 111.923 24.561 113.618 24.5547ZM111.879 28.541C111.885 30.3501 112.59 31.4609 113.618 31.4609C114.647 31.4609 115.351 30.3501 115.357 28.541C115.351 26.7573 114.647 25.6401 113.618 25.6338C112.59 25.6401 111.885 26.7573 111.879 28.541ZM131.789 32.6543V33.6572H121.379V32.6543H123.867V29.6836C122.934 29.1694 122.362 28.3569 122.369 27.335C122.362 25.5449 124.121 24.3706 126.558 24.3643C129.002 24.3706 130.76 25.5449 130.76 27.335C130.76 28.3379 130.215 29.144 129.3 29.6582V32.6543H131.789ZM123.537 27.335C123.537 28.5537 124.775 29.3472 126.558 29.3535C128.329 29.3472 129.586 28.5537 129.592 27.335C129.586 26.1099 128.329 25.3291 126.558 25.3291C124.775 25.3291 123.537 26.1099 123.537 27.335ZM125.06 32.6543H128.082V30.1279C127.618 30.2358 127.104 30.293 126.558 30.293C126.025 30.293 125.517 30.2358 125.06 30.1279V32.6543Z" fill="black"/>
</svg>
