<svg width="56" height="56" viewBox="0 0 56 56" fill="none" xmlns="http://www.w3.org/2000/svg">
<g id="Heart">
<rect x="0.5" y="0.5" width="55" height="55" rx="4.5" stroke="#00AAD2"/>
<path id="Vector" d="M36.3346 28.9994C36.3348 31.1028 35.5066 33.1216 34.0294 34.619C32.5522 36.1163 30.5447 36.9717 28.4415 37H28.334C26.2907 37.0051 24.324 36.2231 22.8419 34.8165C22.7783 34.7563 22.7271 34.6842 22.6914 34.6042C22.6556 34.5242 22.636 34.438 22.6335 34.3504C22.6311 34.2629 22.6459 34.1757 22.6772 34.0938C22.7084 34.012 22.7555 33.9371 22.8157 33.8735C22.8759 33.8099 22.948 33.7587 23.028 33.7229C23.108 33.6872 23.1942 33.6675 23.2817 33.6651C23.3693 33.6626 23.4565 33.6775 23.5383 33.7087C23.6202 33.74 23.695 33.7871 23.7587 33.8472C24.7119 34.7462 25.9089 35.3444 27.2001 35.567C28.4913 35.7897 29.8195 35.6269 31.0188 35.0991C32.218 34.5713 33.2352 33.7018 33.9431 32.5992C34.6511 31.4967 35.0185 30.21 34.9994 28.8998C34.9804 27.5897 34.5757 26.3142 33.836 25.2328C33.0962 24.1513 32.0542 23.3117 30.8401 22.819C29.626 22.3263 28.2936 22.2023 27.0095 22.4624C25.7253 22.7225 24.5462 23.3552 23.6195 24.2816C23.6127 24.2889 23.6055 24.2959 23.5978 24.3024L21.3827 26.3325H23.667C23.8438 26.3325 24.0134 26.4028 24.1384 26.5278C24.2635 26.6528 24.3337 26.8224 24.3337 26.9993C24.3337 27.1761 24.2635 27.3457 24.1384 27.4707C24.0134 27.5957 23.8438 27.666 23.667 27.666H19.6667C19.4899 27.666 19.3203 27.5957 19.1953 27.4707C19.0702 27.3457 19 27.1761 19 26.9993V22.999C19 22.8221 19.0702 22.6526 19.1953 22.5275C19.3203 22.4025 19.4899 22.3322 19.6667 22.3322C19.8435 22.3322 20.0131 22.4025 20.1382 22.5275C20.2632 22.6526 20.3334 22.8221 20.3334 22.999V25.4825L22.6878 23.3323C23.8078 22.2166 25.2333 21.4577 26.7843 21.1515C28.3353 20.8453 29.9423 21.0055 31.4023 21.6118C32.8624 22.2181 34.1101 23.2434 34.9879 24.5582C35.8657 25.873 36.3344 27.4185 36.3346 28.9994Z" fill="#00AAD2"/>
</g>
</svg>
