<svg width="24" height="24" viewBox="0 0 24 24" fill="none" xmlns="http://www.w3.org/2000/svg">
<g id="MopedFront">
<path id="Vector" d="M15.185 3.8496L15.2663 4.2501H15.675H19.5C19.5663 4.2501 19.6299 4.27644 19.6768 4.32332C19.7237 4.3702 19.75 4.43379 19.75 4.5001C19.75 4.5664 19.7237 4.62999 19.6768 4.67687C19.6299 4.72376 19.5663 4.7501 19.5 4.7501H15.675H15.2673L15.1852 5.14944C15.0443 5.83504 14.6858 6.45684 14.1631 6.92231L13.5915 7.43133L14.2873 7.75025C15.245 8.18919 16.0566 8.89359 16.6261 9.77988C17.1955 10.6662 17.4988 11.6972 17.5 12.7507V18.7501C17.5 19.0153 17.3946 19.2697 17.2071 19.4572C17.0196 19.6447 16.7652 19.7501 16.5 19.7501H15H14.5V20.2501C14.5 20.9131 14.2366 21.549 13.7678 22.0179C13.2989 22.4867 12.663 22.7501 12 22.7501C11.337 22.7501 10.7011 22.4867 10.2322 22.0179C9.76339 21.549 9.5 20.9131 9.5 20.2501V19.7501H9H7.5C7.23478 19.7501 6.98043 19.6447 6.79289 19.4572C6.60536 19.2697 6.5 19.0153 6.5 18.7501L6.5 12.7507C6.5 12.7506 6.5 12.7505 6.5 12.7505C6.50123 11.6971 6.80453 10.6661 7.37393 9.77988C7.94337 8.89358 8.75505 8.18919 9.71271 7.75025L10.4085 7.43133L9.83689 6.92231C9.31416 6.45684 8.95567 5.83504 8.81476 5.14944L8.73269 4.7501H8.325H4.5C4.4337 4.7501 4.37011 4.72376 4.32322 4.67687C4.27634 4.62999 4.25 4.5664 4.25 4.5001C4.25 4.43379 4.27634 4.37021 4.32322 4.32332C4.37011 4.27644 4.4337 4.2501 4.5 4.2501H8.325H8.73368L8.815 3.8496C8.96418 3.11491 9.36277 2.45439 9.94323 1.97995C10.5237 1.50551 11.2503 1.24634 12 1.24634C12.7497 1.24634 13.4763 1.50551 14.0568 1.97995C14.6372 2.45439 15.0358 3.11491 15.185 3.8496ZM16.5 19.2501H17V18.7501V12.7501C17 11.424 16.4732 10.1522 15.5355 9.21456C14.5979 8.27688 13.3261 7.7501 12 7.7501C10.6739 7.7501 9.40215 8.27688 8.46447 9.21456C7.52678 10.1522 7 11.424 7 12.7501V18.7501V19.2501H7.5H9H9.5V18.7501V15.7501C9.5 15.0871 9.76339 14.4512 10.2322 13.9823C10.7011 13.5135 11.337 13.2501 12 13.2501C12.663 13.2501 13.2989 13.5135 13.7678 13.9823C14.2366 14.4512 14.5 15.0871 14.5 15.7501V18.7501V19.2501H15H16.5ZM13.4142 21.6643C13.7893 21.2892 14 20.7805 14 20.2501V15.7501C14 15.2197 13.7893 14.711 13.4142 14.3359C13.0391 13.9608 12.5304 13.7501 12 13.7501C11.4696 13.7501 10.9609 13.9608 10.5858 14.3359C10.2107 14.711 10 15.2197 10 15.7501V20.2501C10 20.7805 10.2107 21.2892 10.5858 21.6643C10.9609 22.0394 11.4696 22.2501 12 22.2501C12.5304 22.2501 13.0391 22.0394 13.4142 21.6643ZM9.71346 2.97228C9.41128 3.42451 9.25 3.9562 9.25 4.5001C9.25 5.22944 9.53973 5.92892 10.0555 6.44464C10.5712 6.96037 11.2707 7.2501 12 7.2501C12.5439 7.2501 13.0756 7.08881 13.5278 6.78664C13.9801 6.48447 14.3325 6.05497 14.5407 5.55248C14.7488 5.04998 14.8033 4.49705 14.6972 3.9636C14.5911 3.43015 14.3291 2.94015 13.9445 2.55555C13.5599 2.17096 13.0699 1.90905 12.5365 1.80294C12.0031 1.69683 11.4501 1.75129 10.9476 1.95943C10.4451 2.16757 10.0156 2.52004 9.71346 2.97228Z" stroke="#00AAD2"/>
</g>
</svg>
