<svg width="100" height="146" viewBox="0 0 100 146" fill="none" xmlns="http://www.w3.org/2000/svg">
<rect width="100" height="146" rx="5" fill="white"/>
<rect x="10" y="10" width="80" height="14" rx="5" fill="black" fill-opacity="0.1"/>
<path d="M17.1299 17.8418H16.582V16.9043H17.1299V17.8418ZM19.5615 17.8271H19.0049V14.751H19.5615V17.8271ZM15.1816 16.6846C15.8223 16.6885 16.4277 16.6826 16.998 16.667C17.5684 16.6494 18.1064 16.6143 18.6123 16.5615L18.6445 16.916C18.123 16.9883 17.5781 17.0361 17.0098 17.0596C16.4414 17.083 15.8525 17.0928 15.2432 17.0889L15.1816 16.6846ZM19.5615 19.1396H16.5381V19.6816H15.9902V18.7646H19.0107V18.3984H15.9668V18.0059H19.5615V19.1396ZM19.7168 19.9453H15.9902V19.5439H19.7168V19.9453ZM19.1865 17.5811H17.9795V17.2266H19.1865V17.5811ZM16.8867 14.8418C17.1445 14.8418 17.3721 14.875 17.5693 14.9414C17.7686 15.0059 17.9229 15.0977 18.0322 15.2168C18.1416 15.334 18.1963 15.4727 18.1963 15.6328C18.1963 15.793 18.1416 15.9326 18.0322 16.0518C17.9248 16.1709 17.7715 16.2617 17.5723 16.3242C17.375 16.3867 17.1465 16.418 16.8867 16.418C16.623 16.418 16.3926 16.3867 16.1953 16.3242C15.998 16.2617 15.8447 16.1709 15.7354 16.0518C15.626 15.9326 15.5713 15.793 15.5713 15.6328C15.5713 15.4727 15.626 15.334 15.7354 15.2168C15.8447 15.0977 15.998 15.0059 16.1953 14.9414C16.3945 14.875 16.625 14.8418 16.8867 14.8418ZM16.8867 15.2197C16.7285 15.2197 16.5889 15.2363 16.4678 15.2695C16.3486 15.3027 16.2568 15.3506 16.1924 15.4131C16.1279 15.4756 16.0957 15.5488 16.0957 15.6328C16.0957 15.7148 16.1279 15.7871 16.1924 15.8496C16.2568 15.9102 16.3486 15.958 16.4678 15.9932C16.5889 16.0264 16.7285 16.043 16.8867 16.043C17.0449 16.043 17.1836 16.0264 17.3027 15.9932C17.4238 15.958 17.5156 15.9102 17.5781 15.8496C17.6426 15.7871 17.6748 15.7148 17.6748 15.6328C17.6748 15.5488 17.6426 15.4756 17.5781 15.4131C17.5156 15.3506 17.4238 15.3027 17.3027 15.2695C17.1836 15.2363 17.0449 15.2197 16.8867 15.2197Z" fill="black"/>
<path d="M75.5898 20.0781C75.1888 20.0755 74.8229 19.9857 74.4922 19.8086C74.1641 19.6289 73.8971 19.3359 73.6914 18.9297C73.4857 18.5208 73.3828 17.9883 73.3828 17.332C73.3828 16.6914 73.4753 16.1406 73.6602 15.6797C73.8451 15.2188 74.1068 14.8685 74.4453 14.6289C74.7865 14.3867 75.1875 14.2656 75.6484 14.2656C76.0052 14.2656 76.3242 14.3346 76.6055 14.4727C76.8867 14.6081 77.1146 14.7969 77.2891 15.0391C77.4661 15.2812 77.5755 15.5573 77.6172 15.8672H76.6133C76.5742 15.7188 76.5117 15.5911 76.4258 15.4844C76.3424 15.375 76.2344 15.2917 76.1016 15.2344C75.9688 15.1771 75.8177 15.1484 75.6484 15.1484C75.3776 15.1484 75.1471 15.2253 74.957 15.3789C74.7669 15.5299 74.6211 15.7487 74.5195 16.0352C74.4206 16.3216 74.3711 16.6654 74.3711 17.0664H74.4258C74.5221 16.9023 74.6432 16.7617 74.7891 16.6445C74.9375 16.5273 75.1042 16.4388 75.2891 16.3789C75.4766 16.3164 75.6719 16.2852 75.875 16.2852C76.2109 16.2852 76.5156 16.3646 76.7891 16.5234C77.0651 16.6797 77.2812 16.8984 77.4375 17.1797C77.5938 17.4583 77.6719 17.7747 77.6719 18.1289C77.6719 18.4987 77.5846 18.832 77.4102 19.1289C77.2383 19.4258 76.9935 19.6589 76.6758 19.8281C76.3607 19.9948 75.9987 20.0781 75.5898 20.0781ZM75.5859 19.2539C75.7917 19.2539 75.9779 19.2057 76.1445 19.1094C76.3112 19.0104 76.4427 18.8763 76.5391 18.707C76.638 18.5378 76.6875 18.3529 76.6875 18.1523C76.6875 17.9492 76.6406 17.7643 76.5469 17.5977C76.4531 17.431 76.3229 17.3008 76.1562 17.207C75.9922 17.1107 75.8047 17.0625 75.5938 17.0625C75.3906 17.0625 75.2044 17.112 75.0352 17.2109C74.8659 17.3073 74.7318 17.4401 74.6328 17.6094C74.5339 17.776 74.4818 17.9583 74.4766 18.1562C74.4792 18.3516 74.5286 18.5339 74.625 18.7031C74.724 18.8698 74.8568 19.0039 75.0234 19.1055C75.1901 19.2044 75.3776 19.2539 75.5859 19.2539ZM80.957 17.7695H80.1016V16.5156H80.957V17.7695ZM84.2188 17.7539H83.3516V13.6406H84.2188V17.7539ZM78.2891 16.1836C79.1615 16.1862 79.9753 16.1771 80.7305 16.1562C81.4857 16.1354 82.2005 16.0924 82.875 16.0273L82.9219 16.5703C82.2188 16.6667 81.487 16.7305 80.7266 16.7617C79.9688 16.7904 79.1875 16.8008 78.3828 16.793L78.2891 16.1836ZM84.2188 19.5664H80.207V20.2148H79.3516V18.9922H83.3594V18.5742H79.3242V17.9766H84.2188V19.5664ZM84.4062 20.6328H79.3516V20.0156H84.4062V20.6328ZM83.6289 17.4727H82.0234V16.9375H83.6289V17.4727ZM80.5664 13.75C80.9154 13.75 81.2227 13.7943 81.4883 13.8828C81.7565 13.9714 81.9648 14.0951 82.1133 14.2539C82.2643 14.4128 82.3398 14.599 82.3398 14.8125C82.3398 15.0286 82.2656 15.2161 82.1172 15.375C81.9688 15.5339 81.7604 15.6562 81.4922 15.7422C81.2266 15.8281 80.918 15.8711 80.5664 15.8711C80.2122 15.8711 79.901 15.8281 79.6328 15.7422C79.3672 15.6562 79.1602 15.5339 79.0117 15.375C78.8659 15.2161 78.793 15.0286 78.793 14.8125C78.793 14.599 78.8659 14.4128 79.0117 14.2539C79.1602 14.0951 79.3685 13.9714 79.6367 13.8828C79.9049 13.7943 80.2148 13.75 80.5664 13.75ZM80.5664 14.3281C80.3737 14.3281 80.2044 14.3477 80.0586 14.3867C79.9154 14.4232 79.8047 14.4779 79.7266 14.5508C79.651 14.6237 79.6133 14.7109 79.6133 14.8125C79.6133 14.9089 79.651 14.9935 79.7266 15.0664C79.8047 15.1367 79.9154 15.1927 80.0586 15.2344C80.2044 15.2734 80.3737 15.293 80.5664 15.293C80.7617 15.293 80.931 15.2734 81.0742 15.2344C81.2201 15.1927 81.3307 15.1367 81.4062 15.0664C81.4844 14.9935 81.5234 14.9089 81.5234 14.8125C81.5234 14.7109 81.4844 14.6237 81.4062 14.5508C81.3307 14.4779 81.2201 14.4232 81.0742 14.3867C80.931 14.3477 80.7617 14.3281 80.5664 14.3281Z" fill="black"/>
<rect x="10" y="31.5" width="80" height="1" fill="black" fill-opacity="0.1"/>
<rect x="10" y="31.5" width="38" height="1" fill="#9747FF"/>
<circle cx="47.5" cy="31.5" r="3" fill="white" stroke="#9747FF"/>
<rect x="10" y="44" width="80" height="14" rx="5" fill="black" fill-opacity="0.1"/>
<path d="M17.0215 50.0811C17.0215 50.4951 16.958 50.8916 16.8311 51.2705C16.7041 51.6475 16.5264 51.9805 16.2979 52.2695C16.0693 52.5566 15.8027 52.7744 15.498 52.9229L15.1494 52.457C15.4229 52.334 15.666 52.1504 15.8789 51.9062C16.0938 51.6602 16.2607 51.3779 16.3799 51.0596C16.501 50.7393 16.5615 50.4131 16.5615 50.0811V49.1816H17.0215V50.0811ZM17.1211 50.0811C17.1211 50.3994 17.1797 50.7109 17.2969 51.0156C17.416 51.3203 17.5811 51.5918 17.792 51.8301C18.0049 52.0684 18.2441 52.2471 18.5098 52.3662L18.1758 52.8086C17.8809 52.668 17.6172 52.459 17.3848 52.1816C17.1543 51.9043 16.9756 51.584 16.8486 51.2207C16.7217 50.8574 16.6582 50.4775 16.6582 50.0811V49.1816H17.1211V50.0811ZM19.5439 54.0098H18.9844V48.7451H19.5439V54.0098ZM24.5039 52.5625H23.9414V48.7451H24.5039V52.5625ZM25.2686 50.7666H24.334V50.3037H25.2686V50.7666ZM23.0801 49.1465C23.0801 49.5977 22.9814 50.0098 22.7842 50.3828C22.5869 50.7539 22.3027 51.0752 21.9316 51.3467C21.5625 51.6162 21.1211 51.8301 20.6074 51.9883L20.3701 51.543C20.8135 51.4102 21.1924 51.2373 21.5068 51.0244C21.8232 50.8096 22.0654 50.5654 22.2334 50.292C22.4014 50.0166 22.4854 49.7217 22.4854 49.4072V49.1465H23.0801ZM22.7842 49.6094H20.5928V49.1465H22.7842V49.6094ZM24.7236 53.8926H21.1729V53.4326H24.7236V53.8926ZM21.7295 53.623H21.1729V52.1758H21.7295V53.623Z" fill="black"/>
<path d="M65.7656 54H64.7422V49.3359H64.7109L63.3867 50.1836V49.25L64.7891 48.3438H65.7656V54ZM69.1953 54.0781C68.7969 54.0781 68.4401 54.0104 68.125 53.875C67.8099 53.7396 67.5625 53.5495 67.3828 53.3047C67.2057 53.0573 67.112 52.7773 67.1016 52.4648H68.1289C68.1393 52.6107 68.1914 52.7409 68.2852 52.8555C68.3789 52.9701 68.5052 53.0599 68.6641 53.125C68.8229 53.1875 68.9987 53.2188 69.1914 53.2188C69.3971 53.2188 69.582 53.1836 69.7461 53.1133C69.9128 53.0404 70.0417 52.9414 70.1328 52.8164C70.224 52.6888 70.2682 52.543 70.2656 52.3789C70.2682 52.2044 70.2227 52.0521 70.1289 51.9219C70.0378 51.7891 69.9023 51.6862 69.7227 51.6133C69.5456 51.5378 69.3359 51.5 69.0938 51.5H68.5898V50.7148H69.0938C69.2943 50.7148 69.4714 50.681 69.625 50.6133C69.7812 50.543 69.901 50.4453 69.9844 50.3203C70.0703 50.1953 70.1133 50.0521 70.1133 49.8906C70.1133 49.7318 70.0755 49.5924 70 49.4727C69.9271 49.3503 69.8216 49.2565 69.6836 49.1914C69.5482 49.1237 69.3893 49.0898 69.207 49.0898C69.0299 49.0898 68.8646 49.1224 68.7109 49.1875C68.5599 49.25 68.4375 49.3398 68.3438 49.457C68.2526 49.5716 68.2031 49.7083 68.1953 49.8672H67.2148C67.2279 49.5547 67.3216 49.2773 67.4961 49.0352C67.6732 48.793 67.9115 48.6042 68.2109 48.4688C68.5104 48.3333 68.8438 48.2656 69.2109 48.2656C69.5859 48.2656 69.9154 48.3346 70.1992 48.4727C70.4857 48.6107 70.707 48.7995 70.8633 49.0391C71.0221 49.276 71.099 49.5404 71.0938 49.832C71.099 50.0378 71.0586 50.2266 70.9727 50.3984C70.8867 50.5677 70.7643 50.7083 70.6055 50.8203C70.4466 50.9323 70.2643 51.0104 70.0586 51.0547V51.0977C70.3242 51.1315 70.5508 51.2096 70.7383 51.332C70.9258 51.4518 71.069 51.6055 71.168 51.793C71.2669 51.9779 71.3138 52.1901 71.3086 52.4297C71.3138 52.7396 71.224 53.0208 71.0391 53.2734C70.8568 53.5234 70.6042 53.7201 70.2812 53.8633C69.9609 54.0065 69.599 54.0781 69.1953 54.0781ZM72.8203 53.293C72.7109 53.293 72.6094 53.2656 72.5156 53.2109C72.4219 53.1536 72.3477 53.0794 72.293 52.9883C72.2409 52.8945 72.2148 52.793 72.2148 52.6836C72.2148 52.5768 72.2409 52.4779 72.293 52.3867C72.3477 52.293 72.4219 52.2201 72.5156 52.168C72.6094 52.1133 72.7109 52.0859 72.8203 52.0859C72.9245 52.0859 73.0234 52.1133 73.1172 52.168C73.2109 52.2201 73.2852 52.293 73.3398 52.3867C73.3945 52.4779 73.4219 52.5768 73.4219 52.6836C73.4219 52.793 73.3945 52.8945 73.3398 52.9883C73.2852 53.0794 73.2109 53.1536 73.1172 53.2109C73.0234 53.2656 72.9245 53.293 72.8203 53.293ZM72.8203 50.2617C72.7109 50.2617 72.6094 50.2344 72.5156 50.1797C72.4219 50.1224 72.3477 50.0482 72.293 49.957C72.2409 49.8633 72.2148 49.7617 72.2148 49.6523C72.2148 49.5456 72.2409 49.4466 72.293 49.3555C72.3477 49.2617 72.4219 49.1888 72.5156 49.1367C72.6094 49.082 72.7109 49.0547 72.8203 49.0547C72.9245 49.0547 73.0234 49.082 73.1172 49.1367C73.2109 49.1888 73.2852 49.2617 73.3398 49.3555C73.3945 49.4466 73.4219 49.5456 73.4219 49.6523C73.4219 49.7617 73.3945 49.8633 73.3398 49.957C73.2852 50.0482 73.2109 50.1224 73.1172 50.1797C73.0234 50.2344 72.9245 50.2617 72.8203 50.2617ZM76.4609 54.0781C76.0078 54.0781 75.6185 53.9648 75.293 53.7383C74.9701 53.5117 74.7214 53.181 74.5469 52.7461C74.375 52.3086 74.2891 51.7839 74.2891 51.1719C74.2891 50.5599 74.375 50.0365 74.5469 49.6016C74.7214 49.1667 74.9714 48.8359 75.2969 48.6094C75.6224 48.3802 76.0104 48.2656 76.4609 48.2656C76.9115 48.2656 77.2995 48.3802 77.625 48.6094C77.9531 48.8359 78.2031 49.168 78.375 49.6055C78.5469 50.0404 78.6328 50.5625 78.6328 51.1719C78.6328 51.7865 78.5469 52.3112 78.375 52.7461C78.2057 53.181 77.957 53.5117 77.6289 53.7383C77.3034 53.9648 76.9141 54.0781 76.4609 54.0781ZM76.4609 53.2227C76.6979 53.2227 76.9023 53.1458 77.0742 52.9922C77.2461 52.8359 77.3776 52.6055 77.4688 52.3008C77.5625 51.9935 77.6081 51.6172 77.6055 51.1719C77.6055 50.7292 77.5586 50.3542 77.4648 50.0469C77.3737 49.737 77.2422 49.5039 77.0703 49.3477C76.901 49.1888 76.6979 49.1094 76.4609 49.1094C76.224 49.1094 76.0195 49.1888 75.8477 49.3477C75.6784 49.5039 75.5469 49.737 75.4531 50.0469C75.3594 50.3542 75.3125 50.7292 75.3125 51.1719C75.3125 51.6172 75.3581 51.9935 75.4492 52.3008C75.543 52.6055 75.6758 52.8359 75.8477 52.9922C76.0195 53.1458 76.224 53.2227 76.4609 53.2227ZM81.5703 54.0781C81.1172 54.0781 80.7279 53.9648 80.4023 53.7383C80.0794 53.5117 79.8307 53.181 79.6562 52.7461C79.4844 52.3086 79.3984 51.7839 79.3984 51.1719C79.3984 50.5599 79.4844 50.0365 79.6562 49.6016C79.8307 49.1667 80.0807 48.8359 80.4062 48.6094C80.7318 48.3802 81.1198 48.2656 81.5703 48.2656C82.0208 48.2656 82.4089 48.3802 82.7344 48.6094C83.0625 48.8359 83.3125 49.168 83.4844 49.6055C83.6562 50.0404 83.7422 50.5625 83.7422 51.1719C83.7422 51.7865 83.6562 52.3112 83.4844 52.7461C83.3151 53.181 83.0664 53.5117 82.7383 53.7383C82.4128 53.9648 82.0234 54.0781 81.5703 54.0781ZM81.5703 53.2227C81.8073 53.2227 82.0117 53.1458 82.1836 52.9922C82.3555 52.8359 82.487 52.6055 82.5781 52.3008C82.6719 51.9935 82.7174 51.6172 82.7148 51.1719C82.7148 50.7292 82.668 50.3542 82.5742 50.0469C82.4831 49.737 82.3516 49.5039 82.1797 49.3477C82.0104 49.1888 81.8073 49.1094 81.5703 49.1094C81.3333 49.1094 81.1289 49.1888 80.957 49.3477C80.7878 49.5039 80.6562 49.737 80.5625 50.0469C80.4688 50.3542 80.4219 50.7292 80.4219 51.1719C80.4219 51.6172 80.4674 51.9935 80.5586 52.3008C80.6523 52.6055 80.7852 52.8359 80.957 52.9922C81.1289 53.1458 81.3333 53.2227 81.5703 53.2227Z" fill="black"/>
<rect x="10" y="65.5" width="80" height="1" fill="black" fill-opacity="0.1"/>
<rect x="10" y="65.5" width="42" height="1" fill="#9747FF"/>
<circle cx="51.5" cy="65.5" r="3" fill="white" stroke="#9747FF"/>
<rect x="10" y="78" width="80" height="14" rx="5" fill="black" fill-opacity="0.1"/>
<path d="M19.3184 85.8652H18.7646V82.7451H19.3184V85.8652ZM20.083 84.5293H19.1631V84.0723H20.083V84.5293ZM17.8799 83.1201C17.8799 83.5654 17.7812 83.9717 17.584 84.3389C17.3887 84.7061 17.1064 85.0225 16.7373 85.2881C16.3701 85.5518 15.9297 85.7578 15.416 85.9062L15.1846 85.4551C15.624 85.3301 16.001 85.165 16.3154 84.96C16.6318 84.7549 16.873 84.5186 17.0391 84.251C17.2051 83.9834 17.2881 83.6953 17.2881 83.3867V83.1201H17.8799ZM17.6133 83.5742H15.4219V83.1201H17.6133V83.5742ZM17.6396 85.9238C17.9912 85.9238 18.2979 85.9658 18.5596 86.0498C18.8232 86.1318 19.0254 86.25 19.166 86.4043C19.3066 86.5586 19.377 86.7422 19.377 86.9551C19.377 87.166 19.3066 87.3496 19.166 87.5059C19.0254 87.6621 18.8232 87.7812 18.5596 87.8633C18.2979 87.9473 17.9912 87.9893 17.6396 87.9893C17.292 87.9893 16.9863 87.9473 16.7227 87.8633C16.4609 87.7812 16.2588 87.6621 16.1162 87.5059C15.9736 87.3496 15.9023 87.166 15.9023 86.9551C15.9023 86.7422 15.9736 86.5586 16.1162 86.4043C16.2588 86.25 16.4609 86.1318 16.7227 86.0498C16.9863 85.9658 17.292 85.9238 17.6396 85.9238ZM17.6396 86.3633C17.3994 86.3613 17.1895 86.3838 17.0098 86.4307C16.8301 86.4775 16.6924 86.5459 16.5967 86.6357C16.501 86.7256 16.4531 86.832 16.4531 86.9551C16.4531 87.0762 16.501 87.1816 16.5967 87.2715C16.6924 87.3594 16.8301 87.4277 17.0098 87.4766C17.1895 87.5254 17.3994 87.5498 17.6396 87.5498C17.8838 87.5498 18.0947 87.5254 18.2725 87.4766C18.4521 87.4277 18.5908 87.3594 18.6885 87.2715C18.7861 87.1816 18.835 87.0762 18.835 86.9551C18.835 86.832 18.7861 86.7256 18.6885 86.6357C18.5908 86.5459 18.4521 86.4775 18.2725 86.4307C18.0947 86.3838 17.8838 86.3613 17.6396 86.3633ZM24.6328 85.6191H20.9766V85.1709H24.6328V85.6191ZM25.1836 87.3564H20.3789V86.8965H25.1836V87.3564ZM23.042 87.0664H22.4971V85.3701H23.042V87.0664ZM24.583 83.6035H21.5361V85.376H20.9766V83.1582H24.583V83.6035Z" fill="black"/>
<path d="M70.5547 88.0781C70.1016 88.0781 69.7122 87.9648 69.3867 87.7383C69.0638 87.5117 68.8151 87.181 68.6406 86.7461C68.4688 86.3086 68.3828 85.7839 68.3828 85.1719C68.3828 84.5599 68.4688 84.0365 68.6406 83.6016C68.8151 83.1667 69.0651 82.8359 69.3906 82.6094C69.7161 82.3802 70.1042 82.2656 70.5547 82.2656C71.0052 82.2656 71.3932 82.3802 71.7188 82.6094C72.0469 82.8359 72.2969 83.168 72.4688 83.6055C72.6406 84.0404 72.7266 84.5625 72.7266 85.1719C72.7266 85.7865 72.6406 86.3112 72.4688 86.7461C72.2995 87.181 72.0508 87.5117 71.7227 87.7383C71.3971 87.9648 71.0078 88.0781 70.5547 88.0781ZM70.5547 87.2227C70.7917 87.2227 70.9961 87.1458 71.168 86.9922C71.3398 86.8359 71.4714 86.6055 71.5625 86.3008C71.6562 85.9935 71.7018 85.6172 71.6992 85.1719C71.6992 84.7292 71.6523 84.3542 71.5586 84.0469C71.4674 83.737 71.3359 83.5039 71.1641 83.3477C70.9948 83.1888 70.7917 83.1094 70.5547 83.1094C70.3177 83.1094 70.1133 83.1888 69.9414 83.3477C69.7721 83.5039 69.6406 83.737 69.5469 84.0469C69.4531 84.3542 69.4062 84.7292 69.4062 85.1719C69.4062 85.6172 69.4518 85.9935 69.543 86.3008C69.6367 86.6055 69.7695 86.8359 69.9414 86.9922C70.1133 87.1458 70.3177 87.2227 70.5547 87.2227ZM73.9766 88.0625C73.8672 88.0625 73.7656 88.0352 73.6719 87.9805C73.5781 87.9232 73.5039 87.849 73.4492 87.7578C73.3971 87.6641 73.3711 87.5625 73.3711 87.4531C73.3711 87.3464 73.3971 87.2474 73.4492 87.1562C73.5039 87.0625 73.5781 86.9896 73.6719 86.9375C73.7656 86.8828 73.8672 86.8555 73.9766 86.8555C74.0807 86.8555 74.1797 86.8828 74.2734 86.9375C74.3672 86.9896 74.4414 87.0625 74.4961 87.1562C74.5508 87.2474 74.5781 87.3464 74.5781 87.4531C74.5781 87.5625 74.5508 87.6641 74.4961 87.7578C74.4414 87.849 74.3672 87.9232 74.2734 87.9805C74.1797 88.0352 74.0807 88.0625 73.9766 88.0625ZM77.3984 88.0781C77 88.0781 76.6432 88.0104 76.3281 87.875C76.013 87.7396 75.7656 87.5495 75.5859 87.3047C75.4089 87.0573 75.3151 86.7773 75.3047 86.4648H76.332C76.3424 86.6107 76.3945 86.7409 76.4883 86.8555C76.582 86.9701 76.7083 87.0599 76.8672 87.125C77.026 87.1875 77.2018 87.2188 77.3945 87.2188C77.6003 87.2188 77.7852 87.1836 77.9492 87.1133C78.1159 87.0404 78.2448 86.9414 78.3359 86.8164C78.4271 86.6888 78.4714 86.543 78.4688 86.3789C78.4714 86.2044 78.4258 86.0521 78.332 85.9219C78.2409 85.7891 78.1055 85.6862 77.9258 85.6133C77.7487 85.5378 77.5391 85.5 77.2969 85.5H76.793V84.7148H77.2969C77.4974 84.7148 77.6745 84.681 77.8281 84.6133C77.9844 84.543 78.1042 84.4453 78.1875 84.3203C78.2734 84.1953 78.3164 84.0521 78.3164 83.8906C78.3164 83.7318 78.2786 83.5924 78.2031 83.4727C78.1302 83.3503 78.0247 83.2565 77.8867 83.1914C77.7513 83.1237 77.5924 83.0898 77.4102 83.0898C77.2331 83.0898 77.0677 83.1224 76.9141 83.1875C76.763 83.25 76.6406 83.3398 76.5469 83.457C76.4557 83.5716 76.4062 83.7083 76.3984 83.8672H75.418C75.431 83.5547 75.5247 83.2773 75.6992 83.0352C75.8763 82.793 76.1146 82.6042 76.4141 82.4688C76.7135 82.3333 77.0469 82.2656 77.4141 82.2656C77.7891 82.2656 78.1185 82.3346 78.4023 82.4727C78.6888 82.6107 78.9102 82.7995 79.0664 83.0391C79.2253 83.276 79.3021 83.5404 79.2969 83.832C79.3021 84.0378 79.2617 84.2266 79.1758 84.3984C79.0898 84.5677 78.9674 84.7083 78.8086 84.8203C78.6497 84.9323 78.4674 85.0104 78.2617 85.0547V85.0977C78.5273 85.1315 78.7539 85.2096 78.9414 85.332C79.1289 85.4518 79.2721 85.6055 79.3711 85.793C79.4701 85.9779 79.5169 86.1901 79.5117 86.4297C79.5169 86.7396 79.4271 87.0208 79.2422 87.2734C79.0599 87.5234 78.8073 87.7201 78.4844 87.8633C78.1641 88.0065 77.8021 88.0781 77.3984 88.0781ZM82.4062 88.0781C82.0365 88.0781 81.7005 88.0091 81.3984 87.8711C81.099 87.7305 80.8633 87.5378 80.6914 87.293C80.5195 87.0482 80.4271 86.7721 80.4141 86.4648H81.4023C81.418 86.6159 81.4714 86.7513 81.5625 86.8711C81.6536 86.9909 81.7734 87.0846 81.9219 87.1523C82.0703 87.2201 82.2318 87.2539 82.4062 87.2539C82.6146 87.2539 82.8008 87.207 82.9648 87.1133C83.1289 87.0195 83.2578 86.8906 83.3516 86.7266C83.4453 86.5625 83.4922 86.3763 83.4922 86.168C83.4922 85.9544 83.444 85.7643 83.3477 85.5977C83.2539 85.431 83.1224 85.3008 82.9531 85.207C82.7839 85.1107 82.5911 85.0625 82.375 85.0625C82.151 85.0599 81.9609 85.0977 81.8047 85.1758C81.6484 85.2539 81.526 85.3776 81.4375 85.5469H80.4961L80.8359 82.3438H84.1758V83.1953H81.6758L81.5039 84.6992H81.5508C81.6654 84.5716 81.8203 84.4674 82.0156 84.3867C82.2135 84.306 82.4258 84.2656 82.6523 84.2656C82.9987 84.2656 83.3112 84.3464 83.5898 84.5078C83.8685 84.6667 84.0859 84.8893 84.2422 85.1758C84.401 85.4596 84.4805 85.7812 84.4805 86.1406C84.4805 86.513 84.3919 86.8464 84.2148 87.1406C84.0378 87.4349 83.7917 87.6654 83.4766 87.832C83.1641 87.9961 82.8073 88.0781 82.4062 88.0781Z" fill="black"/>
<rect x="10" y="99.5" width="80" height="1" fill="black" fill-opacity="0.1"/>
<rect x="10" y="99.5" width="18" height="1" fill="#9747FF"/>
<circle cx="27.5" cy="99.5" r="3" fill="white" stroke="#9747FF"/>
<rect x="10" y="112" width="80" height="14" rx="5" fill="black" fill-opacity="0.1"/>
<path d="M17.6221 120.018C17.9814 120.018 18.292 120.056 18.5537 120.132C18.8174 120.208 19.0186 120.32 19.1572 120.469C19.2959 120.617 19.3652 120.795 19.3652 121.002C19.3652 121.211 19.2959 121.389 19.1572 121.535C19.0186 121.684 18.8184 121.797 18.5566 121.875C18.2969 121.955 17.9854 121.996 17.6221 121.998C17.2607 121.996 16.9473 121.955 16.6816 121.875C16.418 121.797 16.2148 121.684 16.0723 121.535C15.9316 121.389 15.8613 121.211 15.8613 121.002C15.8613 120.795 15.9316 120.617 16.0723 120.469C16.2148 120.32 16.418 120.208 16.6816 120.132C16.9473 120.056 17.2607 120.018 17.6221 120.018ZM17.6221 120.454C17.3701 120.454 17.1543 120.476 16.9746 120.519C16.7949 120.562 16.6572 120.624 16.5615 120.706C16.4678 120.786 16.4209 120.885 16.4209 121.002C16.4209 121.115 16.4678 121.214 16.5615 121.298C16.6572 121.38 16.7959 121.443 16.9775 121.488C17.1592 121.533 17.374 121.556 17.6221 121.556C17.874 121.556 18.0898 121.533 18.2695 121.488C18.4492 121.443 18.5859 121.38 18.6797 121.298C18.7754 121.214 18.8232 121.115 18.8232 121.002C18.8232 120.885 18.7764 120.786 18.6826 120.706C18.5889 120.624 18.4521 120.562 18.2725 120.519C18.0947 120.476 17.8779 120.454 17.6221 120.454ZM19.3184 119.883H18.7646V116.745H19.3184V119.883ZM20.083 118.503H19.1631V118.034H20.083V118.503ZM15.9434 117.832H17.3174V117.076H17.874V119.514H15.3955V117.076H15.9434V117.832ZM17.3174 119.068V118.269H15.9434V119.068H17.3174ZM22.1045 116.991C22.3643 116.987 22.5977 117.031 22.8047 117.123C23.0117 117.213 23.1729 117.341 23.2881 117.507C23.4053 117.671 23.4639 117.86 23.4639 118.075C23.4639 118.286 23.4053 118.475 23.2881 118.641C23.1729 118.807 23.0117 118.936 22.8047 119.027C22.5977 119.119 22.3643 119.165 22.1045 119.165C21.8428 119.165 21.6094 119.119 21.4043 119.027C21.1992 118.936 21.0381 118.807 20.9209 118.641C20.8037 118.475 20.7451 118.286 20.7451 118.075C20.7451 117.86 20.8037 117.671 20.9209 117.507C21.0381 117.341 21.1992 117.213 21.4043 117.123C21.6094 117.031 21.8428 116.987 22.1045 116.991ZM22.1045 117.442C21.9443 117.438 21.8018 117.463 21.6768 117.516C21.5537 117.568 21.458 117.644 21.3896 117.741C21.3213 117.839 21.2871 117.95 21.2871 118.075C21.2871 118.2 21.3213 118.312 21.3896 118.409C21.458 118.505 21.5537 118.579 21.6768 118.632C21.8018 118.683 21.9443 118.708 22.1045 118.708C22.2666 118.708 22.4102 118.683 22.5352 118.632C22.6602 118.579 22.7578 118.505 22.8281 118.409C22.8984 118.312 22.9336 118.2 22.9336 118.075C22.9336 117.95 22.8984 117.839 22.8281 117.741C22.7578 117.644 22.6602 117.568 22.5352 117.516C22.4121 117.463 22.2686 117.438 22.1045 117.442ZM22.4121 121.84H21.8555V119.733H22.4121V121.84ZM24.7412 121.998H24.1904V116.751H24.7412V121.998ZM20.376 119.569C21.0146 119.569 21.6221 119.557 22.1982 119.531C22.7744 119.506 23.3193 119.456 23.833 119.382L23.8682 119.795C23.3896 119.883 22.8975 119.942 22.3916 119.974C21.8877 120.005 21.3232 120.024 20.6982 120.032C20.6221 120.034 20.5391 120.035 20.4492 120.035L20.376 119.569ZM29.6895 119.818H29.1357V116.745H29.6895V119.818ZM30.4541 118.515H29.5342V118.046H30.4541V118.515ZM28.2363 117.067C28.2363 117.513 28.1387 117.915 27.9434 118.274C27.75 118.632 27.4688 118.938 27.0996 119.191C26.7305 119.445 26.2852 119.64 25.7637 119.774L25.5352 119.347C25.9844 119.228 26.3662 119.069 26.6807 118.872C26.9971 118.673 27.2383 118.442 27.4043 118.181C27.5703 117.919 27.6533 117.636 27.6533 117.331V117.067H28.2363ZM27.9697 117.521H25.7842V117.067H27.9697V117.521ZM29.6895 121.995H29.1357V120.498H26.2207V120.05H29.6895V121.995Z" fill="black"/>
<path d="M78.5547 122.078C78.1016 122.078 77.7122 121.965 77.3867 121.738C77.0638 121.512 76.8151 121.181 76.6406 120.746C76.4688 120.309 76.3828 119.784 76.3828 119.172C76.3828 118.56 76.4688 118.036 76.6406 117.602C76.8151 117.167 77.0651 116.836 77.3906 116.609C77.7161 116.38 78.1042 116.266 78.5547 116.266C79.0052 116.266 79.3932 116.38 79.7188 116.609C80.0469 116.836 80.2969 117.168 80.4688 117.605C80.6406 118.04 80.7266 118.562 80.7266 119.172C80.7266 119.786 80.6406 120.311 80.4688 120.746C80.2995 121.181 80.0508 121.512 79.7227 121.738C79.3971 121.965 79.0078 122.078 78.5547 122.078ZM78.5547 121.223C78.7917 121.223 78.9961 121.146 79.168 120.992C79.3398 120.836 79.4714 120.605 79.5625 120.301C79.6562 119.993 79.7018 119.617 79.6992 119.172C79.6992 118.729 79.6523 118.354 79.5586 118.047C79.4674 117.737 79.3359 117.504 79.1641 117.348C78.9948 117.189 78.7917 117.109 78.5547 117.109C78.3177 117.109 78.1133 117.189 77.9414 117.348C77.7721 117.504 77.6406 117.737 77.5469 118.047C77.4531 118.354 77.4062 118.729 77.4062 119.172C77.4062 119.617 77.4518 119.993 77.543 120.301C77.6367 120.605 77.7695 120.836 77.9414 120.992C78.1133 121.146 78.3177 121.223 78.5547 121.223ZM82.8555 118.957C82.6159 118.957 82.3945 118.897 82.1914 118.777C81.9883 118.658 81.8268 118.497 81.707 118.297C81.5872 118.094 81.5273 117.872 81.5273 117.633C81.5273 117.391 81.5872 117.168 81.707 116.965C81.8268 116.762 81.9883 116.602 82.1914 116.484C82.3945 116.365 82.6159 116.305 82.8555 116.305C83.0977 116.305 83.3203 116.365 83.5234 116.484C83.7266 116.602 83.8867 116.762 84.0039 116.965C84.1237 117.168 84.1836 117.391 84.1836 117.633C84.1836 117.872 84.1237 118.094 84.0039 118.297C83.8867 118.497 83.7253 118.658 83.5195 118.777C83.3164 118.897 83.0951 118.957 82.8555 118.957ZM82.8555 118.254C82.9674 118.254 83.0716 118.227 83.168 118.172C83.2643 118.115 83.3398 118.038 83.3945 117.941C83.4492 117.845 83.4766 117.742 83.4766 117.633C83.4766 117.518 83.4492 117.413 83.3945 117.316C83.3398 117.22 83.2643 117.145 83.168 117.09C83.0742 117.035 82.9701 117.008 82.8555 117.008C82.7435 117.008 82.6393 117.035 82.543 117.09C82.4466 117.145 82.3698 117.22 82.3125 117.316C82.2552 117.413 82.2266 117.518 82.2266 117.633C82.2266 117.742 82.2552 117.845 82.3125 117.941C82.3698 118.038 82.4466 118.115 82.543 118.172C82.6393 118.227 82.7435 118.254 82.8555 118.254Z" fill="black"/>
<rect x="10" y="133.5" width="80" height="1" fill="black" fill-opacity="0.1"/>
<circle cx="12.5" cy="133.5" r="3" fill="white" stroke="#9747FF"/>
</svg>
