<svg width="24" height="24" viewBox="0 0 24 24" fill="none" xmlns="http://www.w3.org/2000/svg">
<g id="MagnifyingGlass">
<path id="Vector" d="M16.4523 15.4562L16.1602 15.807L16.483 16.1298L21.177 20.8229C21.2003 20.8462 21.2187 20.8738 21.2313 20.9041C21.2439 20.9345 21.2504 20.9671 21.2504 21C21.2504 21.0329 21.2439 21.0654 21.2313 21.0958C21.2187 21.1262 21.2003 21.1538 21.177 21.177C21.1538 21.2003 21.1262 21.2187 21.0958 21.2313C21.0654 21.2439 21.0329 21.2504 21 21.2504C20.9671 21.2504 20.9345 21.2439 20.9041 21.2313C20.8738 21.2187 20.8462 21.2003 20.8229 21.177L16.1298 16.483L15.807 16.1602L15.4562 16.4523C13.9217 17.7305 11.9535 18.3679 9.96097 18.2319C7.96848 18.0958 6.10514 17.1969 4.75857 15.722C3.412 14.2471 2.68588 12.3099 2.73125 10.3132C2.77663 8.31663 3.59001 6.41438 5.00219 5.00219C6.41438 3.59001 8.31663 2.77663 10.3132 2.73125C12.3099 2.68588 14.2471 3.412 15.722 4.75857C17.1969 6.10514 18.0958 7.96848 18.2319 9.96097C18.3679 11.9535 17.7305 13.9217 16.4523 15.4562ZM3.24997 10.5L3.24997 10.5005C3.2521 12.4225 4.01657 14.2652 5.37564 15.6243C6.73471 16.9834 8.5774 17.7478 10.4994 17.75H10.5C11.9339 17.75 13.3356 17.3248 14.5279 16.5281C15.7201 15.7315 16.6494 14.5992 17.1981 13.2744C17.7468 11.9497 17.8904 10.4919 17.6107 9.08557C17.3309 7.6792 16.6404 6.38738 15.6265 5.37345C14.6126 4.35951 13.3207 3.66902 11.9144 3.38928C10.508 3.10953 9.05028 3.25311 7.72552 3.80184C6.40075 4.35058 5.26846 5.27983 4.47182 6.47209C3.67518 7.66434 3.24997 9.06606 3.24997 10.5Z" stroke="#00AAD2"/>
</g>
</svg>
