<svg width="30" height="30" viewBox="0 0 30 30" fill="none" xmlns="http://www.w3.org/2000/svg">
<g id="ep:refrigerator">
<path id="Vector" d="M7.5 13.125H22.5V4.6875C22.5 4.43886 22.4012 4.2004 22.2254 4.02459C22.0496 3.84877 21.8111 3.75 21.5625 3.75H8.4375C8.18886 3.75 7.9504 3.84877 7.77459 4.02459C7.59877 4.2004 7.5 4.43886 7.5 4.6875V13.125ZM7.5 15V25.3125C7.5 25.5611 7.59877 25.7996 7.77459 25.9754C7.9504 26.1512 8.18886 26.25 8.4375 26.25H21.5625C21.8111 26.25 22.0496 26.1512 22.2254 25.9754C22.4012 25.7996 22.5 25.5611 22.5 25.3125V15H7.5ZM8.4375 1.875H21.5625C22.3084 1.875 23.0238 2.17132 23.5512 2.69876C24.0787 3.22621 24.375 3.94158 24.375 4.6875V25.3125C24.375 26.0584 24.0787 26.7738 23.5512 27.3012C23.0238 27.8287 22.3084 28.125 21.5625 28.125H8.4375C7.69158 28.125 6.97621 27.8287 6.44876 27.3012C5.92132 26.7738 5.625 26.0584 5.625 25.3125V4.6875C5.625 3.94158 5.92132 3.22621 6.44876 2.69876C6.97621 2.17132 7.69158 1.875 8.4375 1.875ZM9.375 8.4375H11.25V11.25H9.375V8.4375ZM9.375 16.875H11.25V19.6875H9.375V16.875Z" fill="#21CCF4"/>
</g>
</svg>
