<svg width="143" height="42" viewBox="0 0 143 42" fill="none" xmlns="http://www.w3.org/2000/svg">
<rect width="143" height="42" rx="15" fill="white"/>
<path d="M19.6338 9.51953C19.6338 10.9351 20.7383 12.2427 22.4902 12.7568L21.8809 13.6963C20.5542 13.29 19.5513 12.4268 19.0308 11.3096C18.5229 12.5093 17.5073 13.4487 16.1426 13.8994L15.5332 12.9473C17.3042 12.4077 18.4087 11.0112 18.415 9.51953V9.39258H15.8633V8.41504H22.1348V9.39258H19.6338V9.51953ZM17.4121 18.9395V14.3945H18.5928V15.6641H23.6582V14.3945H24.8516V18.9395H17.4121ZM18.5928 17.9619H23.6582V16.6162H18.5928V17.9619ZM23.6455 13.8613V7.7041H24.8516V13.8613H23.6455ZM29.9713 8.5166C31.7677 8.51025 33.0626 9.62109 33.069 11.2207C33.0626 12.8203 31.7677 13.9312 29.9713 13.9375C28.1813 13.9312 26.8673 12.8203 26.8737 11.2207C26.8673 9.62109 28.1813 8.51025 29.9713 8.5166ZM26.3278 15.6514C28.3971 15.6514 31.2662 15.6323 33.7545 15.2705L33.8434 16.1465C31.2726 16.6416 28.5114 16.6543 26.4801 16.6543L26.3278 15.6514ZM28.067 11.2207C28.0543 12.23 28.8668 12.8838 29.9713 12.8838C31.0758 12.8838 31.8883 12.23 31.8883 11.2207C31.8883 10.2241 31.0758 9.55762 29.9713 9.55762C28.8668 9.55762 28.0543 10.2241 28.067 11.2207ZM34.4655 19.1045V7.7041H35.6715V19.1045H34.4655ZM50.2655 13.417V14.4072H39.8935V13.417H50.2655ZM40.4394 11.8555C42.6928 11.6714 44.2543 10.8462 44.4003 9.74805H40.9345V8.7832H44.4765V7.69141H45.6698V8.7832H49.2245V9.74805H45.746C45.8793 10.8462 47.4472 11.6714 49.707 11.8555L49.3388 12.7822C47.371 12.5981 45.7778 11.938 45.0732 10.8779C44.3622 11.938 42.7753 12.5981 40.8202 12.7822L40.4394 11.8555ZM41.1249 17.1621C41.1249 15.9307 42.5849 15.2578 45.0732 15.2578C47.5487 15.2578 48.9897 15.9307 48.996 17.1621C48.9897 18.3936 47.5487 19.0601 45.0732 19.0537C42.5849 19.0601 41.1249 18.3936 41.1249 17.1621ZM42.3437 17.1621C42.3373 17.8096 43.3149 18.1523 45.0732 18.1396C46.8061 18.1523 47.79 17.8096 47.79 17.1621C47.79 16.5146 46.8061 16.1592 45.0732 16.1592C43.3149 16.1592 42.3373 16.5146 42.3437 17.1621ZM56.566 8.70703C56.5596 10.2178 58.4068 11.6333 60.6412 11.9316L60.1714 12.9219C58.3116 12.6235 56.6802 11.6587 55.9376 10.3193C55.1949 11.6587 53.5635 12.6235 51.7164 12.9219L51.2339 11.9316C53.462 11.6333 55.3028 10.2368 55.3091 8.70703V8.08496H56.566V8.70703ZM50.7388 15.0293V14.0391H61.1109V15.0293H56.4898V19.0791H55.3091V15.0293H50.7388ZM63.6281 17.124L62.6125 20.6279H61.5334L62.2062 17.124H63.6281ZM72.5727 14.7881C74.915 14.7881 76.3432 15.5752 76.3432 16.9209C76.3432 18.2856 74.915 19.0728 72.5727 19.0791C70.2051 19.0728 68.7514 18.2856 68.7514 16.9209C68.7514 15.5752 70.2051 14.7881 72.5727 14.7881ZM67.7485 13.6963V8.41504H68.9292V10.0527H71.9126V8.41504H73.1059V13.6963H67.7485ZM68.9292 12.7314H71.9126V11.0049H68.9292V12.7314ZM69.9575 16.9209C69.9512 17.6826 70.9287 18.1143 72.5727 18.1143C74.2041 18.1143 75.1689 17.6826 75.1626 16.9209C75.1689 16.1655 74.2041 15.7402 72.5727 15.7402C70.9287 15.7402 69.9512 16.1655 69.9575 16.9209ZM75.0356 14.4961V7.7041H76.2417V10.4844H77.8921V11.5127H76.2417V14.4961H75.0356ZM81.8566 8.5166C83.653 8.51025 84.9479 9.62109 84.9542 11.2207C84.9479 12.8203 83.653 13.9312 81.8566 13.9375C80.0665 13.9312 78.7526 12.8203 78.7589 11.2207C78.7526 9.62109 80.0665 8.51025 81.8566 8.5166ZM78.213 15.6514C80.2823 15.6514 83.1515 15.6323 85.6398 15.2705L85.7286 16.1465C83.1578 16.6416 80.3966 16.6543 78.3654 16.6543L78.213 15.6514ZM79.9523 11.2207C79.9396 12.23 80.7521 12.8838 81.8566 12.8838C82.9611 12.8838 83.7736 12.23 83.7736 11.2207C83.7736 10.2241 82.9611 9.55762 81.8566 9.55762C80.7521 9.55762 79.9396 10.2241 79.9523 11.2207ZM86.3507 19.1045V7.7041H87.5568V19.1045H86.3507ZM101.237 7.7041V19.0791H100.018V7.7041H101.237ZM91.893 16.0322C94.9145 14.5913 96.3935 12.541 96.6283 9.8877H92.4389V8.92285H97.8471C97.8471 12.2554 96.4315 15.1372 92.5277 17.0098L91.893 16.0322ZM111.815 10.7764V11.7539H104.008V7.90723H105.201V10.7764H111.815ZM102.624 13.9502V12.96H113.009V13.9502H102.624ZM103.856 16.9463C103.856 15.6196 105.335 14.8706 107.804 14.877C110.254 14.8706 111.72 15.6196 111.727 16.9463C111.72 18.2793 110.254 19.0283 107.804 19.0283C105.335 19.0283 103.856 18.2793 103.856 16.9463ZM105.074 16.9463C105.068 17.6763 106.064 18.0952 107.804 18.1016C109.518 18.0952 110.521 17.6763 110.521 16.9463C110.521 16.21 109.518 15.8228 107.804 15.8164C106.064 15.8228 105.068 16.21 105.074 16.9463ZM126.638 13.0488V14.0391H116.253V13.0488H126.638ZM117.485 16.9971C117.485 15.6768 118.964 14.9277 121.433 14.9277C123.883 14.9277 125.349 15.6768 125.356 16.9971C125.349 18.3174 123.883 19.0601 121.433 19.0537C118.964 19.0601 117.485 18.3174 117.485 16.9971ZM117.548 12.0586V8.11035H125.356V9.10059H118.742V11.0811H125.432V12.0586H117.548ZM118.703 16.9971C118.697 17.7271 119.694 18.1206 121.433 18.127C123.147 18.1206 124.15 17.7271 124.15 16.9971C124.15 16.2734 123.147 15.8672 121.433 15.8545C119.694 15.8672 118.697 16.2734 118.703 16.9971ZM24.3818 24.4023V25.2275C24.3882 26.2305 24.3882 27.519 24.0708 29.3408H25.791V30.3311H23.1377V35.0664H21.9443V30.3311H19.2148V35.0664H18.0088V30.3311H15.4189V29.3408H22.8521C23.1948 27.627 23.2139 26.3701 23.2139 25.3926H16.7139V24.4023H24.3818ZM32.2946 24.4531C32.2946 24.8848 32.2501 25.291 32.1676 25.6846H34.5416V23.7168H35.7477V30.4834H34.5416V29.0615H31.6725V28.084H34.5416V26.6494H31.8629C31.0949 28.4331 29.3429 29.709 26.8864 30.3691L26.4293 29.417C29.1334 28.687 30.7775 27.2397 30.9996 25.4307H27.026V24.4531H32.2946ZM28.0416 31.9307V30.9785H35.7477V35.0537H34.5416V31.9307H28.0416ZM42.2893 23.8945C44.8538 23.8882 46.3455 24.5801 46.3518 25.8496C46.3455 27.1255 44.8538 27.8174 42.2893 27.8174C39.7249 27.8174 38.2205 27.1255 38.2268 25.8496C38.2205 24.5801 39.7249 23.8882 42.2893 23.8945ZM37.1096 29.4805V28.5156H47.4817V29.4805H37.1096ZM38.3538 31.2578V30.3564H46.1741V33.0225H39.5471V34.0381H46.4915V34.9648H38.3665V32.1465H44.9807V31.2578H38.3538ZM39.4837 25.8496C39.4773 26.5542 40.4803 26.916 42.2893 26.916C44.1111 26.916 45.114 26.5542 45.1077 25.8496C45.114 25.1768 44.1111 24.7832 42.2893 24.7832C40.4803 24.7832 39.4773 25.1768 39.4837 25.8496ZM60.2222 23.7041V29.5566H59.0162V26.6367H56.6168V25.6592H59.0162V23.7041H60.2222ZM50.7007 28.6426C52.4781 28.0776 53.5381 26.6621 53.5445 25.0625V24.0723H54.7379V25.0625C54.7379 26.5098 55.7789 27.8555 57.4927 28.4014L56.858 29.3408C55.6075 28.9092 54.6617 28.0522 54.1602 26.9668C53.6651 28.1919 52.6939 29.144 51.3482 29.6074L50.7007 28.6426ZM52.7828 31.042V30.0898H60.2222V32.9209H53.9888V33.9746H60.6158V34.9395H52.8082V32.0068H59.0289V31.042H52.7828ZM71.0676 23.7041V30.4707H69.8615V27.5889H67.7414V26.5986H69.8615V23.7041H71.0676ZM61.5842 29.4424C63.3488 28.8267 64.4343 27.2905 64.4279 25.7227V25.4688H61.965V24.4912H68.0969V25.4688H65.6594V25.71C65.653 27.1509 66.6813 28.5537 68.4016 29.1377L67.7795 30.0898C66.5036 29.6519 65.5642 28.7378 65.069 27.6143C64.5739 28.8838 63.5773 29.9058 62.2189 30.4072L61.5842 29.4424ZM63.4123 32.9336C63.406 31.5815 64.8659 30.7944 67.259 30.7881C69.6394 30.7944 71.0993 31.5815 71.1057 32.9336C71.0993 34.2856 69.6394 35.0728 67.259 35.0791C64.8659 35.0728 63.406 34.2856 63.4123 32.9336ZM64.6057 32.9336C64.5993 33.7017 65.5896 34.1396 67.259 34.127C68.9157 34.1396 69.906 33.7017 69.9123 32.9336C69.906 32.1592 68.9157 31.7212 67.259 31.7275C65.5896 31.7212 64.5993 32.1592 64.6057 32.9336ZM81.2909 23.7041V28.3125H83.119V29.3154H81.2909V35.0791H80.0975V23.7041H81.2909ZM72.3661 26.4717V25.4814H75.1717V23.8564H76.3778V25.4814H79.1073V26.4717H72.3661ZM72.95 29.9502C72.95 28.4014 74.1434 27.3096 75.7811 27.3096C77.4124 27.3096 78.6058 28.4014 78.6121 29.9502C78.6058 31.5117 77.4124 32.5972 75.7811 32.6035C74.1434 32.5972 72.95 31.5117 72.95 29.9502ZM74.1053 29.9502C74.099 30.9404 74.8099 31.6006 75.7811 31.5879C76.7459 31.6006 77.4505 30.9404 77.4569 29.9502C77.4505 28.979 76.7459 28.3062 75.7811 28.2998C74.8099 28.3062 74.099 28.979 74.1053 29.9502ZM92.479 24.7959V25.9131C92.4726 27.3159 92.4726 28.8901 92.0473 31.2197L90.8286 31.0928C91.2666 28.8901 91.2666 27.2778 91.2729 25.9131V25.7734H84.3667V24.7959H92.479ZM83.2749 33.543V32.54H87.2231V28.5283H88.4165V32.54H93.6469V33.543H83.2749Z" fill="black"/>
</svg>
