<svg width="25" height="24" viewBox="0 0 25 24" fill="none" xmlns="http://www.w3.org/2000/svg">
<g id="Handshake" clip-path="url(#clip0_73_438)">
<path id="Vector" d="M24.5906 10.1166L22.1981 5.3297C22.1099 5.15352 21.988 4.99642 21.8391 4.86737C21.6903 4.73833 21.5174 4.63988 21.3305 4.57763C21.1436 4.51539 20.9463 4.49057 20.7498 4.5046C20.5533 4.51863 20.3614 4.57123 20.1853 4.65939L17.8537 5.8247L12.9421 4.52533C12.8161 4.49253 12.6838 4.49253 12.5578 4.52533L7.64621 5.8247L5.31465 4.65939C5.13847 4.57123 4.94666 4.51863 4.75015 4.5046C4.55365 4.49057 4.35631 4.51539 4.1694 4.57763C3.98249 4.63988 3.80967 4.73833 3.66081 4.86737C3.51195 4.99642 3.38997 5.15352 3.30183 5.3297L0.909334 10.1156C0.821168 10.2918 0.768569 10.4836 0.75454 10.6801C0.740512 10.8766 0.765329 11.074 0.827575 11.2609C0.889821 11.4478 0.988276 11.6206 1.11732 11.7695C1.24636 11.9183 1.40346 12.0403 1.57965 12.1285L4.1109 13.395L9.31308 17.1103C9.38974 17.1649 9.4759 17.2046 9.56715 17.2275L15.5671 18.7275C15.6928 18.759 15.8245 18.7575 15.9493 18.723C16.0742 18.6885 16.188 18.6222 16.2796 18.5306L21.4425 13.3669L23.9193 12.1285C24.2749 11.9504 24.5453 11.6385 24.671 11.2613C24.7967 10.884 24.7674 10.4723 24.5896 10.1166H24.5906ZM19.4446 13.245L16.2187 10.6613C16.0742 10.5455 15.892 10.4873 15.7071 10.4979C15.5223 10.5085 15.3479 10.587 15.2175 10.7185C13.5478 12.4003 11.6868 12.1875 10.5 11.4375L14.5537 7.50002H17.5359L20.0868 12.601L19.4446 13.245ZM4.6434 6.00002L6.56246 6.95814L4.16527 11.7441L2.24996 10.7869L4.6434 6.00002ZM15.5184 17.1685L10.0706 15.8072L5.45808 12.5128L8.08308 7.26283L12.75 6.02627L13.6687 6.26908L9.44996 10.3641L9.44246 10.3725C9.28365 10.5313 9.16253 10.7238 9.08804 10.9356C9.01354 11.1475 8.98758 11.3734 9.01205 11.5967C9.03653 11.8199 9.11082 12.0348 9.22945 12.2255C9.34808 12.4162 9.50802 12.5778 9.69746 12.6985C11.625 13.9294 13.9509 13.7297 15.7828 12.2297L18.375 14.3119L15.5184 17.1685ZM21.3309 11.7431L18.9384 6.96189L20.8565 6.00002L23.25 10.7869L21.3309 11.7431ZM13.1043 20.431C13.0638 20.5931 12.9703 20.737 12.8387 20.8399C12.7071 20.9428 12.5449 20.9988 12.3778 20.9991C12.3161 20.999 12.2548 20.9914 12.195 20.9766L8.2884 19.9997C8.19703 19.9772 8.1108 19.9374 8.03433 19.8825L5.56402 18.1181C5.41213 17.9989 5.31209 17.8256 5.28474 17.6345C5.2574 17.4433 5.30484 17.2489 5.4172 17.0919C5.52956 16.9348 5.69818 16.8271 5.88794 16.7913C6.0777 16.7554 6.27397 16.7942 6.4359 16.8994L8.78996 18.5813L12.5625 19.5225C12.7554 19.5708 12.9213 19.6937 13.0236 19.8642C13.1259 20.0348 13.1563 20.2389 13.1081 20.4319L13.1043 20.431Z" fill="black" fill-opacity="0.25"/>
</g>
<defs>
<clipPath id="clip0_73_438">
<rect width="24" height="24" fill="white" transform="translate(0.75)"/>
</clipPath>
</defs>
</svg>
