<svg width="25" height="25" viewBox="0 0 25 25" fill="none" xmlns="http://www.w3.org/2000/svg">
<g opacity="0.3">
<circle cx="12.5" cy="12.5" r="11.75" stroke="black" stroke-width="1.5"/>
<path d="M7.04063 13.4599C6.9802 13.3995 6.93225 13.3278 6.89955 13.2489C6.86684 13.17 6.85 13.0854 6.85 13C6.85 12.9146 6.86684 12.83 6.89955 12.7511C6.93225 12.6722 6.9802 12.6005 7.04063 12.5401L11.5403 8.04045C11.6623 7.91851 11.8277 7.85 12.0001 7.85C12.1726 7.85 12.338 7.91851 12.4599 8.04045C12.5819 8.1624 12.6504 8.32779 12.6504 8.50025C12.6504 8.67271 12.5819 8.8381 12.4599 8.96005L12.4599 8.96006L9.06935 12.35H18.4998C18.6721 12.35 18.8375 12.4185 18.9594 12.5404C19.0812 12.6623 19.1497 12.8276 19.1497 13C19.1497 13.1724 19.0812 13.3377 18.9594 13.4596C18.8375 13.5815 18.6721 13.65 18.4998 13.65H9.06935M7.04063 13.4599L7.04057 13.4598L7.14664 13.3537L7.04063 13.4599ZM7.04063 13.4599L11.5403 17.9595C11.6007 18.0199 11.6724 18.0678 11.7513 18.1005C11.8302 18.1332 11.9147 18.15 12.0001 18.15C12.0855 18.15 12.1701 18.1332 12.249 18.1005C12.3278 18.0678 12.3995 18.0199 12.4599 17.9595C12.5203 17.8992 12.5682 17.8275 12.6009 17.7486C12.6335 17.6697 12.6504 17.5851 12.6504 17.4997C12.6504 17.4144 12.6335 17.3298 12.6009 17.2509C12.5682 17.172 12.5203 17.1003 12.4599 17.04L12.4599 17.0399L9.06935 13.65M9.06935 13.65L8.91932 13.5L12.3538 17.146L8.8572 13.65H9.06935Z" fill="black" stroke="black" stroke-width="0.3"/>
</g>
</svg>
