<svg width="30" height="30" viewBox="0 0 30 30" fill="none" xmlns="http://www.w3.org/2000/svg">
<path d="M2.5 11.25H27.5M5 11.25L5.63 18.1788C5.925 21.4188 6.07125 23.0375 7.14625 24.0188C8.22 25 9.84625 25 13.0988 25H16.9012C20.1537 25 21.78 25 22.8538 24.0188C23.9288 23.0375 24.075 21.4188 24.37 18.1788L25 11.25M5 7.5H25M11.25 7.5L12.0288 4.92875C12.1679 4.58074 12.4082 4.28243 12.7186 4.07232C13.029 3.86221 13.3952 3.74994 13.77 3.75H16.2312C16.6058 3.75019 16.9718 3.86257 17.2819 4.07267C17.5921 4.28276 17.8322 4.58094 17.9712 4.92875L18.75 7.5" stroke="#21CCF4" stroke-width="1.5" stroke-linecap="round" stroke-linejoin="round"/>
</svg>
