<svg width="172" height="42" viewBox="0 0 172 42" fill="none" xmlns="http://www.w3.org/2000/svg">
<rect width="172" height="42" rx="15" fill="white"/>
<path d="M15.8125 18V16.9844L18.999 13.7725C20.0083 12.7251 20.5098 12.1411 20.5098 11.335C20.5098 10.4272 19.7734 9.84961 18.8086 9.84961C17.7866 9.84961 17.1392 10.4971 17.1328 11.4746H15.8125C15.7998 9.79248 17.082 8.68164 18.834 8.68164C20.605 8.68164 21.8301 9.80518 21.8428 11.2969C21.8301 12.3252 21.3477 13.144 19.6211 14.8389L17.7549 16.7305V16.8066H21.9951V18H15.8125ZM26.2643 18H23.2809V8.80859H26.3532C29.0636 8.80859 30.6759 10.5288 30.6823 13.3916C30.6759 16.2607 29.0636 18 26.2643 18ZM24.6774 16.7812H26.1881C28.2702 16.7749 29.2985 15.5625 29.2985 13.3916C29.2985 11.2271 28.2702 10.0273 26.2643 10.0273H24.6774V16.7812ZM34.7483 8.37695L31.7903 19.3838H30.5843L33.5423 8.37695H34.7483ZM38.6112 18.127C36.707 18.127 35.3549 17.105 35.2978 15.6006H36.7196C36.7704 16.4067 37.5702 16.9209 38.5986 16.9209C39.7094 16.9209 40.5155 16.3179 40.5155 15.4229C40.5155 14.5151 39.7602 13.8677 38.4462 13.8613H37.6591V12.7188H38.4462C39.4936 12.7251 40.2236 12.1411 40.2236 11.2588C40.2236 10.4209 39.5951 9.84961 38.6239 9.84961C37.7035 9.84961 36.8783 10.3638 36.8466 11.1953H35.5009C35.539 9.69727 36.9228 8.68164 38.6366 8.68164C40.4457 8.68164 41.582 9.82422 41.5693 11.1826C41.582 12.23 40.9345 12.979 39.9443 13.2266V13.29C41.2011 13.4678 41.9311 14.312 41.9247 15.4736C41.9311 17.0034 40.5155 18.127 38.6112 18.127ZM46.1812 18H43.1978V8.80859H46.2701C48.9805 8.80859 50.5928 10.5288 50.5992 13.3916C50.5928 16.2607 48.9805 18 46.1812 18ZM44.5943 16.7812H46.105C48.1871 16.7749 49.2154 15.5625 49.2154 13.3916C49.2154 11.2271 48.1871 10.0273 46.1812 10.0273H44.5943V16.7812ZM64.4569 16.6543V17.6572H54.0467V16.6543H58.6297V14.0264H55.2401V8.61816H63.2127V14.0264H59.8231V16.6543H64.4569ZM56.408 13.0742H62.0321V9.58301H56.408V13.0742ZM74.1089 13.0996V14.0898H66.187V8.71973H74.0073V9.70996H67.3804V13.0996H74.1089ZM64.8921 17.5811V16.5781H75.3022V17.5811H64.8921ZM86.1349 12.9219V13.8486H75.7247V12.9219H86.1349ZM76.9562 15.5117V14.6484H84.8527V17.1494H78.1749V18.0889H85.2081V18.9395H76.9689V16.3496H83.6593V15.5117H76.9562ZM77.0323 8.84668V7.99609H84.8273V10.459H78.2511V11.3223H85.0177V12.1729H77.0577V9.65918H83.6212V8.84668H77.0323ZM98.85 7.7168V16.0449H97.6439V11.7666H95.473V10.7891H97.6439V7.7168H98.85ZM89.3793 13.6709C91.1249 13.0806 92.2167 11.5825 92.2104 10.0146V9.57031H89.7475V8.58008H95.8793V9.57031H93.4418V10.0146C93.4354 11.4302 94.4638 12.8584 96.184 13.4297L95.5619 14.3945C94.286 13.9502 93.3402 13.0361 92.8451 11.9062C92.35 13.1631 91.3534 14.166 90.0014 14.6484L89.3793 13.6709ZM91.4613 18.8379V15.2959H92.6674V17.8604H99.1547V18.8379H91.4613ZM109.162 7.7041V11.6016H110.787V12.6045H109.162V16.5908H107.956V7.7041H109.162ZM100.136 14.3818C101.012 14.3818 102.034 14.3818 103.106 14.3438V13.5503C101.812 13.3979 100.986 12.7759 100.999 11.8428C100.986 10.7383 102.072 10.0781 103.703 10.0908C105.335 10.0781 106.401 10.7383 106.407 11.8428C106.401 12.7759 105.595 13.3979 104.313 13.5439V14.2866C105.328 14.2295 106.356 14.1343 107.309 13.9883L107.41 14.8389C104.985 15.2959 102.25 15.3276 100.263 15.3467L100.136 14.3818ZM100.428 9.64648V8.75781H103.106V7.66602H104.313V8.75781H106.991V9.64648H100.428ZM101.812 18.8379V15.9941H103.018V17.8604H109.568V18.8379H101.812ZM102.142 11.8428C102.142 12.395 102.732 12.7441 103.703 12.7441C104.662 12.7441 105.258 12.395 105.252 11.8428C105.258 11.2524 104.662 10.9097 103.703 10.916C102.732 10.9097 102.142 11.2524 102.142 11.8428ZM119.919 7.7041V12.3125H121.747V13.3154H119.919V19.0791H118.725V7.7041H119.919ZM110.994 10.4717V9.48145H113.799V7.85645H115.006V9.48145H117.735V10.4717H110.994ZM111.578 13.9502C111.578 12.4014 112.771 11.3096 114.409 11.3096C116.04 11.3096 117.234 12.4014 117.24 13.9502C117.234 15.5117 116.04 16.5972 114.409 16.6035C112.771 16.5972 111.578 15.5117 111.578 13.9502ZM112.733 13.9502C112.727 14.9404 113.438 15.6006 114.409 15.5879C115.374 15.6006 116.078 14.9404 116.085 13.9502C116.078 12.979 115.374 12.3062 114.409 12.2998C113.438 12.3062 112.727 12.979 112.733 13.9502ZM131.107 8.7959V9.91309C131.1 11.3159 131.1 12.8901 130.675 15.2197L129.456 15.0928C129.894 12.8901 129.894 11.2778 129.901 9.91309V9.77344H122.994V8.7959H131.107ZM121.903 17.543V16.54H125.851V12.5283H127.044V16.54H132.275V17.543H121.903ZM24.3311 23.7041V28.4648H26.0449V29.4805H24.3311V35.0791H23.125V23.7041H24.3311ZM15.2793 31.9814C16.1743 31.9814 17.2153 31.9814 18.3008 31.9497V30.7944C17.0186 30.604 16.1807 29.8296 16.1934 28.7314C16.1807 27.4492 17.2915 26.605 18.9102 26.5986C20.5225 26.605 21.646 27.4492 21.6523 28.7314C21.646 29.8296 20.7954 30.6104 19.5068 30.7944V31.9053C20.5161 31.8545 21.5317 31.772 22.4775 31.6387L22.5537 32.5273C20.0908 32.9653 17.4312 32.9907 15.4697 32.9844L15.2793 31.9814ZM15.4951 26.0146V25.0498H18.3008V23.7295H19.5068V25.0498H22.3125V26.0146H15.4951ZM17.3232 28.7314C17.3232 29.4551 17.958 29.9058 18.9102 29.8994C19.8623 29.9058 20.4907 29.4551 20.4971 28.7314C20.4907 28.0015 19.8623 27.5381 18.9102 27.5381C17.958 27.5381 17.3232 28.0015 17.3232 28.7314ZM32.0661 24.6689V25.6338H34.5416V23.7168H35.7477V32.0068H34.5416V29.0615H32.0661V30.0518H26.7848V24.6689H32.0661ZM27.9782 29.0996H30.8854V25.6465H27.9782V29.0996ZM28.3209 34.8379V31.2451H29.5397V33.8604H36.0016V34.8379H28.3209ZM32.0661 28.0713H34.5416V26.624H32.0661V28.0713ZM50.3036 32.6543V33.6572H39.8935V32.6543H42.3818V29.6836C41.4487 29.1694 40.8774 28.3569 40.8837 27.335C40.8774 25.5449 42.6357 24.3706 45.0732 24.3643C47.517 24.3706 49.2753 25.5449 49.2753 27.335C49.2753 28.3379 48.7294 29.144 47.8154 29.6582V32.6543H50.3036ZM42.0517 27.335C42.0517 28.5537 43.2895 29.3472 45.0732 29.3535C46.8442 29.3472 48.101 28.5537 48.1073 27.335C48.101 26.1099 46.8442 25.3291 45.0732 25.3291C43.2895 25.3291 42.0517 26.1099 42.0517 27.335ZM43.5751 32.6543H46.5966V30.1279C46.1332 30.2358 45.6191 30.293 45.0732 30.293C44.54 30.293 44.0321 30.2358 43.5751 30.1279V32.6543ZM61.149 32.6416V33.6318H50.7388V32.6416H55.2964V29.9375H56.4898V32.6416H61.149ZM51.0943 29.1504C53.2842 28.7822 55.2393 27.0938 55.2457 25.291V24.4277H56.5152V25.291C56.5152 27.0938 58.4957 28.7822 60.692 29.1504L60.1714 30.1406C58.3243 29.7788 56.6358 28.6362 55.8868 27.0811C55.1378 28.6299 53.462 29.7788 51.6275 30.1406L51.0943 29.1504ZM71.9816 28.9219V29.8486H61.5715V28.9219H71.9816ZM62.8029 31.5117V30.6484H70.6994V33.1494H64.0217V34.0889H71.0549V34.9395H62.8156V32.3496H69.5061V31.5117H62.8029ZM62.8791 24.8467V23.9961H70.674V26.459H64.0979V27.3223H70.8645V28.1729H62.9045V25.6592H69.468V24.8467H62.8791ZM84.6968 23.7041V29.5566H83.4907V26.6367H81.0913V25.6592H83.4907V23.7041H84.6968ZM75.1753 28.6426C76.9526 28.0776 78.0127 26.6621 78.019 25.0625V24.0723H79.2124V25.0625C79.2124 26.5098 80.2534 27.8555 81.9673 28.4014L81.3325 29.3408C80.082 28.9092 79.1362 28.0522 78.6347 26.9668C78.1396 28.1919 77.1684 29.144 75.8227 29.6074L75.1753 28.6426ZM77.2573 31.042V30.0898H84.6968V32.9209H78.4634V33.9746H85.0903V34.9395H77.2827V32.0068H83.5034V31.042H77.2573ZM95.5421 23.7041V30.4707H94.3361V27.5889H92.2159V26.5986H94.3361V23.7041H95.5421ZM86.0587 29.4424C87.8234 28.8267 88.9088 27.2905 88.9025 25.7227V25.4688H86.4396V24.4912H92.5714V25.4688H90.1339V25.71C90.1276 27.1509 91.1559 28.5537 92.8761 29.1377L92.254 30.0898C90.9781 29.6519 90.0387 28.7378 89.5436 27.6143C89.0485 28.8838 88.0519 29.9058 86.6935 30.4072L86.0587 29.4424ZM87.8868 32.9336C87.8805 31.5815 89.3404 30.7944 91.7335 30.7881C94.1139 30.7944 95.5738 31.5815 95.5802 32.9336C95.5738 34.2856 94.1139 35.0728 91.7335 35.0791C89.3404 35.0728 87.8805 34.2856 87.8868 32.9336ZM89.0802 32.9336C89.0738 33.7017 90.0641 34.1396 91.7335 34.127C93.3903 34.1396 94.3805 33.7017 94.3868 32.9336C94.3805 32.1592 93.3903 31.7212 91.7335 31.7275C90.0641 31.7212 89.0738 32.1592 89.0802 32.9336ZM105.842 23.666V26.332H107.505V27.3223H105.842V29.9248H104.636V23.666H105.842ZM96.9168 25.6211V24.6689H99.7097V23.6025H100.916V24.6689H103.696V25.6211H96.9168ZM97.5388 27.9189C97.5325 26.77 98.637 26.0527 100.306 26.0527C101.976 26.0527 103.061 26.77 103.061 27.9189C103.061 29.0742 101.976 29.7788 100.306 29.7725C98.637 29.7788 97.5325 29.0742 97.5388 27.9189ZM98.491 31.3594V30.458H105.842V33.0986H99.697V34.0508H106.235V34.9648H98.5164V32.248H104.648V31.3594H98.491ZM98.7068 27.9189C98.6941 28.5347 99.3225 28.8965 100.306 28.8965C101.284 28.8965 101.919 28.5347 101.931 27.9189C101.919 27.3032 101.284 26.9224 100.306 26.916C99.3225 26.9224 98.6941 27.3032 98.7068 27.9189ZM116.36 24.707C116.354 26.2178 118.201 27.6333 120.436 27.9316L119.966 28.9219C118.106 28.6235 116.475 27.6587 115.732 26.3193C114.989 27.6587 113.358 28.6235 111.511 28.9219L111.028 27.9316C113.256 27.6333 115.097 26.2368 115.104 24.707V24.085H116.36V24.707ZM110.533 31.0293V30.0391H120.905V31.0293H116.284V35.0791H115.104V31.0293H110.533ZM128.111 31.2197C128.111 32.1973 128.593 33.2319 129.628 33.8477C130.669 33.1812 131.183 32.0957 131.183 31.2197V30.6738H132.364V31.2197C132.357 32.4004 133.138 33.543 134.623 34.0254L134.027 34.9141C132.903 34.5269 132.135 33.7651 131.742 32.8384C131.38 33.7524 130.701 34.584 129.659 35.0156C128.568 34.603 127.876 33.7969 127.527 32.8701C127.114 33.7651 126.365 34.5205 125.292 34.9141L124.683 34.0254C126.143 33.5049 126.936 32.3179 126.943 31.2197V30.6738H128.111V31.2197ZM124.391 27.0303C124.397 25.437 125.68 24.3452 127.425 24.3389C129.164 24.3452 130.447 25.437 130.447 27.0303C130.447 28.6045 129.164 29.6963 127.425 29.6963C125.68 29.6963 124.397 28.6045 124.391 27.0303ZM125.572 27.0303C125.565 28.0205 126.346 28.6934 127.425 28.6934C128.492 28.6934 129.266 28.0205 129.266 27.0303C129.266 26.0337 128.492 25.3608 127.425 25.3672C126.346 25.3608 125.565 26.0337 125.572 27.0303ZM132.389 30.1914V23.7168H133.595V30.1914H132.389ZM138.093 24.5547C139.642 24.561 140.765 25.8687 140.949 27.9697H143.298V23.7041H144.491V35.1045H143.298V28.9473H140.962C140.829 31.1689 139.68 32.5464 138.093 32.54C136.398 32.5464 135.198 30.9976 135.211 28.541C135.198 26.1099 136.398 24.561 138.093 24.5547ZM136.353 28.541C136.36 30.3501 137.064 31.4609 138.093 31.4609C139.121 31.4609 139.826 30.3501 139.832 28.541C139.826 26.7573 139.121 25.6401 138.093 25.6338C137.064 25.6401 136.36 26.7573 136.353 28.541ZM156.263 32.6543V33.6572H145.853V32.6543H148.341V29.6836C147.408 29.1694 146.837 28.3569 146.843 27.335C146.837 25.5449 148.595 24.3706 151.033 24.3643C153.477 24.3706 155.235 25.5449 155.235 27.335C155.235 28.3379 154.689 29.144 153.775 29.6582V32.6543H156.263ZM148.011 27.335C148.011 28.5537 149.249 29.3472 151.033 29.3535C152.804 29.3472 154.061 28.5537 154.067 27.335C154.061 26.1099 152.804 25.3291 151.033 25.3291C149.249 25.3291 148.011 26.1099 148.011 27.335ZM149.535 32.6543H152.556V30.1279C152.093 30.2358 151.579 30.293 151.033 30.293C150.5 30.293 149.992 30.2358 149.535 30.1279V32.6543Z" fill="black"/>
</svg>
