<svg width="30" height="30" viewBox="0 0 30 30" fill="none" xmlns="http://www.w3.org/2000/svg">
<path d="M27.3046 15.8203C27.0207 14.7599 26.4924 13.7806 25.7621 12.961C25.0318 12.1414 24.1197 11.5042 23.0988 11.1003C22.078 10.6965 20.9768 10.5374 19.8834 10.6356C18.79 10.7339 17.7348 11.0867 16.8023 11.666L18.723 3.99728C18.7706 3.80675 18.7572 3.60607 18.6847 3.42356C18.6121 3.24105 18.4841 3.08593 18.3187 2.9801C17.5213 2.47661 16.6308 2.13865 15.7002 1.98635C14.7695 1.83405 13.8178 1.87051 12.9015 2.09355C11.9852 2.3166 11.1232 2.72169 10.3667 3.2847C9.6102 3.84771 8.97467 4.55715 8.49795 5.37079C8.02123 6.18444 7.71304 7.08567 7.59174 8.02085C7.47044 8.95604 7.5385 9.90607 7.79186 10.8144C8.04523 11.7228 8.47872 12.5709 9.06656 13.3082C9.65439 14.0456 10.3845 14.6572 11.2136 15.1067L3.61163 17.2781C3.42277 17.3319 3.25557 17.4437 3.13362 17.5976C3.01167 17.7515 2.94112 17.9398 2.93194 18.136C2.85979 19.7366 3.33651 21.3139 4.28317 22.6067C5.22983 23.8995 6.58963 24.8301 8.13741 25.2446C8.73438 25.4049 9.34976 25.4864 9.96788 25.4871C10.9098 25.4846 11.8416 25.2931 12.7082 24.924C13.5747 24.5548 14.3584 24.0155 15.0127 23.338C15.6671 22.6605 16.1788 21.8586 16.5176 20.9797C16.8564 20.1008 17.0153 19.1629 16.9851 18.2215L22.6663 23.7199C22.8076 23.8566 22.9883 23.9454 23.1828 23.9738C23.3773 24.0022 23.5758 23.9688 23.7503 23.8781C25.1718 23.1406 26.299 21.9399 26.9453 20.4746C27.5916 19.0094 27.7184 17.3674 27.3046 15.8203ZM13.1249 15C13.1249 14.6292 13.2349 14.2667 13.4409 13.9583C13.6469 13.65 13.9398 13.4097 14.2824 13.2677C14.625 13.1258 15.002 13.0887 15.3657 13.161C15.7294 13.2334 16.0635 13.412 16.3257 13.6742C16.588 13.9364 16.7665 14.2705 16.8389 14.6342C16.9112 14.9979 16.8741 15.3749 16.7322 15.7176C16.5903 16.0602 16.3499 16.353 16.0416 16.559C15.7333 16.7651 15.3708 16.875 14.9999 16.875C14.5026 16.875 14.0257 16.6775 13.6741 16.3258C13.3225 15.9742 13.1249 15.4973 13.1249 15ZM9.37491 8.90627C9.37461 8.03743 9.59387 7.18261 10.0123 6.42118C10.4308 5.65975 11.0348 5.0164 11.7684 4.55087C12.502 4.08534 13.3413 3.81274 14.2085 3.75837C15.0756 3.704 15.9424 3.86962 16.7284 4.23986L14.973 11.25C14.3013 11.2551 13.6432 11.4404 13.0677 11.7868C12.4921 12.1331 12.0201 12.6277 11.7011 13.2188C10.985 12.7505 10.3971 12.1107 9.99089 11.3576C9.58467 10.6045 9.37294 9.76193 9.37491 8.90627ZM12.539 22.9184C11.7867 23.353 10.9368 23.5906 10.0682 23.6089C9.19959 23.6273 8.34043 23.4258 7.57048 23.0233C6.80054 22.6208 6.14478 22.0303 5.66411 21.3066C5.18343 20.5828 4.89342 19.7494 4.821 18.8836L11.7714 16.8985C12.1018 17.4614 12.5735 17.9283 13.1397 18.253C13.706 18.5778 14.3472 18.7491 14.9999 18.75H15.1066C15.0594 19.6036 14.7998 20.432 14.3515 21.1599C13.9031 21.8878 13.2801 22.4922 12.539 22.9184ZM24.9808 20.2231C24.6015 20.8811 24.0812 21.447 23.4573 21.8801L18.2636 16.8539C18.5959 16.2702 18.7649 15.6077 18.7527 14.936C18.7406 14.2644 18.5477 13.6085 18.1944 13.0371C19.186 12.5365 20.3128 12.3696 21.407 12.561C22.5011 12.7525 23.5042 13.2922 24.2669 14.0998C25.0296 14.9074 25.511 15.9397 25.6397 17.043C25.7683 18.1463 25.5372 19.2617 24.9808 20.2231Z" fill="#21CCF4"/>
</svg>
